<?xml version="1.0" encoding="UTF-8"?>
<svg version="1.1" xmlns="http://www.w3.org/2000/svg" viewBox="0 0 2388 1668">
<path d="M0 0 C3.37408537 1.65189596 4.4595055 4.80036548 5.71875 8.1875 C7.50737573 15.11842472 8.5337633 22.07352036 9.4375 29.16796875 C9.60958984 30.51145386 9.60958984 30.51145386 9.78515625 31.88208008 C11.93091093 49.75981318 13.1043652 67.72854108 13.76611328 85.71649361 C13.87924915 88.78720457 13.99942882 91.85757896 14.12109375 94.92796326 C14.42149989 102.54239201 14.71082445 110.15723259 15 117.77209473 C15.24644545 124.25115526 15.49752202 130.73000626 15.75439453 137.20866203 C15.87063668 140.1851481 15.98043481 143.16182134 16.08984375 146.13856506 C16.76827728 163.77953495 17.73587731 181.51921428 20.875 198.91796875 C24.175 199.57796875 27.475 200.23796875 30.875 200.91796875 C31.70802601 196.6607583 31.93883866 192.7969008 31.74487305 188.46728516 C31.69119064 187.20381256 31.63750824 185.94033997 31.5821991 184.63858032 C31.51730323 183.26555145 31.45213553 181.8925354 31.38671875 180.51953125 C31.3224 179.08346398 31.25850961 177.64737747 31.19502258 176.21127319 C31.06021432 173.19338463 30.92101855 170.17574022 30.77856445 167.15820312 C30.59979211 163.36664791 30.43049222 159.5747473 30.26430225 155.78262234 C29.66873774 142.25885644 29.0346652 128.75749968 27.8046875 115.2734375 C26.72347372 103.38835728 26.46746296 91.53376659 26.3125 79.60546875 C26.26807247 76.52734529 26.22119478 73.4493056 26.16969299 70.37129211 C26.13854165 68.48577018 26.11142998 66.6001746 26.08946228 64.71452332 C25.97895075 57.64727167 25.40069498 50.664108 24.62278748 43.64091492 C23.85297622 35.70361123 27.82909595 28.06455528 30.875 20.91796875 C31.31585937 19.87898437 31.75671875 18.84 32.2109375 17.76953125 C34.79667926 12.15336602 36.79958936 9.46381416 42.6875 7.23046875 C46.14644974 6.73633307 49.42613354 6.2896604 52.875 6.91796875 C55.875 9.29296875 55.875 9.29296875 57.875 11.91796875 C57.875 12.57796875 57.875 13.23796875 57.875 13.91796875 C58.803125 14.25828125 58.803125 14.25828125 59.75 14.60546875 C62.65939122 16.40244568 62.92478164 17.62300356 63.875 20.91796875 C64.08205077 24.04772987 63.96202786 27.156119 63.859375 30.2890625 C63.81901515 32.34101647 63.78134322 34.39302445 63.74584961 36.44506836 C63.72505341 37.56122528 63.7042572 38.6773822 63.68283081 39.82736206 C63.11473971 74.48511605 65.44067028 108.97253577 67.65332031 143.54272461 C67.92452198 147.79145999 68.19487213 152.04024881 68.46484375 156.2890625 C68.53028004 157.31343855 68.59571632 158.3378146 68.66313553 159.39323235 C69.81661671 177.56180972 70.5382056 195.71620026 70.875 213.91796875 C71.50315613 214.03796234 72.13131226 214.15795593 72.77850342 214.28158569 C78.23028736 215.34399087 83.59807885 216.54805552 88.953125 218.01953125 C90.04134552 218.31562035 90.04134552 218.31562035 91.15155029 218.61769104 C93.47760762 219.25388974 95.80156546 219.89726075 98.125 220.54296875 C99.32286133 220.87477646 99.32286133 220.87477646 100.54492188 221.21328735 C112.72706492 224.6018726 124.61653108 228.43721874 136.41894531 232.98876953 C140.664954 234.59516208 144.95901932 236.06195294 149.25 237.54296875 C155.45522155 239.70345907 161.64866088 241.8918032 167.8125 244.16796875 C168.45687012 244.40209473 169.10124023 244.6362207 169.76513672 244.87744141 C172.47133746 245.88765014 174.94174557 246.95826216 177.41796875 248.453125 C180.28863156 250.16456944 183.06353757 251.09557162 186.25 252.10546875 C187.58630808 252.54053006 188.92221945 252.97681104 190.2578125 253.4140625 C190.99032227 253.65237793 191.72283203 253.89069336 192.47753906 254.13623047 C207.81347333 259.136807 222.46475365 264.64957158 236.875 271.91796875 C238.23027258 272.59544465 239.58573556 273.27253984 240.94140625 273.94921875 C242.90676188 274.93189656 244.87128076 275.91609429 246.83349609 276.9050293 C254.24127557 280.63089514 261.74901574 284.14247558 269.24902344 287.67773438 C283.20029711 294.26684466 297.14505502 300.87653203 310.875 307.91796875 C311.58382324 308.28132324 312.29264648 308.64467773 313.02294922 309.01904297 C327.63090706 316.54279898 341.22653483 324.50230354 353.1171875 336.03125 C368.45738502 350.88917602 386.49562198 361.02128003 407.2578125 366.4453125 C408.875 366.91796875 408.875 366.91796875 409.875 367.91796875 C410.4375 370.60546875 410.4375 370.60546875 409.875 373.91796875 C405.32082352 378.84762254 399.0135401 381.50233954 392.875 383.91796875 C393.00519531 384.50964844 393.13539062 385.10132813 393.26953125 385.7109375 C394.02271747 390.02592021 394.31865186 392.15305176 392.0625 396.04296875 C386.35234215 399.40188513 381.51211666 397.57579255 375.3359375 396.03515625 C360.2057658 391.84778945 345.9621208 384.73591975 332.84277344 376.19042969 C330.4205058 374.62407002 327.98006791 373.08777352 325.5390625 371.55078125 C323.58827381 370.31943468 321.63775461 369.08766106 319.6875 367.85546875 C318.77250732 367.27772705 317.85751465 366.69998535 316.91479492 366.10473633 C312.47270003 363.27991483 308.09649902 360.39896475 303.80078125 357.35546875 C299.07255512 354.01360666 294.20136952 350.97789772 289.25 347.98046875 C281.21517009 343.07194982 273.36472127 337.93732182 265.5625 332.66796875 C235.74887967 312.65920568 203.1930265 298.16894321 168.75610352 288.14697266 C161.91039585 286.14999948 155.18189285 284.02906422 148.5 281.54296875 C138.42638249 277.85318134 128.08578774 275.07521787 117.75 272.23046875 C116.90286438 271.99604065 116.05572876 271.76161255 115.18292236 271.52008057 C106.14559291 269.02662418 97.08899151 266.65955333 87.9453125 264.5859375 C86.83541458 264.33037834 86.83541458 264.33037834 85.70309448 264.06965637 C82.03508835 263.26055539 78.6341284 262.72159637 74.875 262.91796875 C74.89856567 263.86265015 74.89856567 263.86265015 74.92260742 264.82641602 C74.98540232 267.711007 75.02413058 270.59545361 75.0625 273.48046875 C75.10020508 274.96643555 75.10020508 274.96643555 75.13867188 276.48242188 C75.22317382 284.96078336 73.74175571 290.48346249 67.875 296.91796875 C64.41710243 298.64691754 60.66289066 298.27047973 56.875 297.91796875 C52.72576729 296.37217617 49.95427001 294.15760442 46.66015625 291.25 C43.67838418 289.02508911 40.31950964 287.57785583 36.94921875 286.03125 C34.875 284.91796875 34.875 284.91796875 33.875 282.91796875 C33.72004237 280.66822714 33.62489072 278.41425339 33.55859375 276.16015625 C33.53781265 275.4971048 33.51703156 274.83405334 33.49562073 274.15090942 C33.43020769 272.03170181 33.37127895 269.91236975 33.3125 267.79296875 C33.26930691 266.35675794 33.22569236 264.92055973 33.18164062 263.484375 C33.07453501 259.96237281 32.97324425 256.4402305 32.875 252.91796875 C29.905 252.58796875 26.935 252.25796875 23.875 251.91796875 C24.03419922 252.74901123 24.19339844 253.58005371 24.35742188 254.4362793 C24.91355952 258.1773543 25.08142045 261.85190851 25.15625 265.625 C25.17465942 266.34983078 25.19306885 267.07466156 25.21203613 267.82145691 C25.27035651 270.12438434 25.32331041 272.42738359 25.375 274.73046875 C25.62873391 287.85675796 25.62873391 287.85675796 26.875 300.91796875 C27.535 300.91796875 28.195 300.91796875 28.875 300.91796875 C29.19620156 305.52185771 28.86679956 308.30717618 25.875 311.91796875 C21.81998851 313.25349301 19.54755451 312.6964633 15.6875 311.04296875 C11.92692376 309.55083662 8.85138083 308.69586014 4.8125 308.54296875 C0.69901977 308.29680773 -1.58988904 307.21313115 -5 304.91796875 C-9.86874152 301.67214107 -13.87358997 301.21051633 -19.65625 301.12109375 C-22.125 300.91796875 -22.125 300.91796875 -24.125 298.91796875 C-24.4034729 296.66537476 -24.4034729 296.66537476 -24.44384766 293.82568359 C-24.47365219 292.23426041 -24.47365219 292.23426041 -24.50405884 290.61068726 C-24.51561005 289.46169952 -24.52716125 288.31271179 -24.5390625 287.12890625 C-24.56811172 285.36856552 -24.56811172 285.36856552 -24.5977478 283.57266235 C-24.65767664 279.81283914 -24.70398246 276.05298552 -24.75 272.29296875 C-24.7881675 269.74868433 -24.82721849 267.204413 -24.8671875 264.66015625 C-24.96338905 258.41287634 -25.04839738 252.16551803 -25.125 245.91796875 C-29.20801381 245.43734887 -33.29146633 244.96055608 -37.375 244.484375 C-38.51453125 244.35019165 -39.6540625 244.2160083 -40.828125 244.07775879 C-49.1673551 243.1079087 -57.50987905 242.30374987 -65.87841797 241.63565063 C-71.73556796 241.16556822 -77.38842093 240.18199954 -83.125 238.91796875 C-82.88160889 240.04948364 -82.88160889 240.04948364 -82.63330078 241.20385742 C-80.97569387 250.05477773 -82.03473675 259.8845123 -82.5625 268.85546875 C-82.60165527 269.54745361 -82.64081055 270.23943848 -82.68115234 270.95239258 C-83.00076538 275.79373413 -83.00076538 275.79373413 -84.125 276.91796875 C-88.20589366 277.24444024 -90.78123094 277.06797707 -94.5625 275.41796875 C-98.06902557 273.6287069 -98.06902557 273.6287069 -101.9375 274.16796875 C-106.94558618 274.40318219 -110.10956569 271.67528029 -114.0234375 268.83984375 C-116.09314776 266.94709756 -117.08720057 265.49536074 -118.125 262.91796875 C-118.785 262.91796875 -119.445 262.91796875 -120.125 262.91796875 C-122.44326455 254.22447668 -120.97315661 244.73273926 -120.125 235.91796875 C-120.93324219 235.92957031 -121.74148438 235.94117188 -122.57421875 235.953125 C-123.64285156 235.96214844 -124.71148438 235.97117187 -125.8125 235.98046875 C-127.39611328 235.99787109 -127.39611328 235.99787109 -129.01171875 236.015625 C-131.84910262 235.926623 -134.3688919 235.56736713 -137.125 234.91796875 C-136.9710376 235.61365967 -136.8170752 236.30935059 -136.65844727 237.02612305 C-135.64206491 242.53598531 -135.44224087 248.14672798 -135.0625 253.73046875 C-134.97307129 255.02879639 -134.88364258 256.32712402 -134.79150391 257.66479492 C-134.19447453 266.76977719 -133.86642716 275.79609364 -134.125 284.91796875 C-133.465 284.91796875 -132.805 284.91796875 -132.125 284.91796875 C-132 290.66796875 -132 290.66796875 -133.125 292.91796875 C-136.3287202 293.68075927 -139.08278182 293.92040441 -142.375 293.73046875 C-146.02364683 293.91290109 -147.8545992 294.53356416 -151.125 295.98046875 C-155.56023656 297.87166977 -158.38237023 298.4058526 -163.125 296.91796875 C-163.970625 296.23734375 -164.81625 295.55671875 -165.6875 294.85546875 C-168.73811559 292.43062046 -170.32930734 292.75293863 -174.125 292.91796875 C-177.125 290.91796875 -177.125 290.91796875 -177.78125 288.85986328 C-178.24870451 284.85927606 -178.45451274 280.87071963 -178.625 276.84765625 C-178.66560547 275.97078156 -178.70621094 275.09390686 -178.74804688 274.19046021 C-178.87730715 271.39144704 -179.00157343 268.59224477 -179.125 265.79296875 C-179.78082171 249.8318171 -179.78082171 249.8318171 -181.125 233.91796875 C-181.785 234.24796875 -182.445 234.57796875 -183.125 234.91796875 C-185.92801056 235.00089953 -188.70562213 235.02265163 -191.50830078 234.99975586 C-192.37712387 234.9966893 -193.24594696 234.99362274 -194.14109802 234.99046326 C-196.03611281 234.98329224 -197.93112014 234.97389406 -199.82611465 234.96256828 C-202.84891504 234.94514766 -205.87166213 234.93486433 -208.89450073 234.926651 C-217.49319523 234.90226004 -226.09182012 234.86733673 -234.69042969 234.82202148 C-267.4690173 234.47538534 -267.4690173 234.47538534 -300.125 236.91796875 C-302.02282227 237.13078491 -302.02282227 237.13078491 -303.95898438 237.34790039 C-306.91562619 237.69387644 -309.86359228 238.07453753 -312.8125 238.48046875 C-318.61301916 239.26650158 -324.37660707 239.95909325 -330.21875 240.34765625 C-338.52298521 240.94728674 -346.71197938 242.22874015 -354.9375 243.48046875 C-356.51621281 243.71721888 -358.09498859 243.95354959 -359.67382812 244.18945312 C-363.49162632 244.76080671 -367.30853506 245.33777913 -371.125 245.91796875 C-367.64396996 248.80739876 -364.97143357 250.51101503 -360.625 251.79296875 C-355.365446 253.60758577 -352.99424029 255.1359016 -350.125 259.91796875 C-348.65086915 263.9067934 -349.0256605 266.22915057 -350.75 269.98046875 C-354.23189273 276.20066356 -359.10974283 279.69350443 -364.97265625 283.5078125 C-369.80865347 286.52791144 -369.80865347 286.52791144 -373.125 290.98046875 C-374.125 292.91796875 -374.125 292.91796875 -376.5625 294.10546875 C-379.4244572 296.12977994 -379.5077799 296.53296336 -380.375 299.73046875 C-381.44228708 303.56776682 -383.03347346 306.39560172 -385.3425293 309.63720703 C-392.66810942 319.95488422 -394.48720202 330.83017357 -395.84790039 343.21655273 C-396.5594786 349.68713821 -397.06513017 353.6170794 -402.125 357.91796875 C-405.21345456 359.46219603 -408.31243204 358.9356434 -411.71484375 358.85546875 C-414.27066188 358.80456239 -414.27066188 358.80456239 -417.125 359.91796875 C-419.57223505 358.7656152 -421.76842488 357.57703454 -424.0625 356.16796875 C-425.06567261 355.55659058 -425.06567261 355.55659058 -426.08911133 354.93286133 C-432.83541375 350.68340533 -438.50721007 345.54696065 -444.125 339.91796875 C-444.63691895 339.40766113 -445.14883789 338.89735352 -445.67626953 338.37158203 C-447.75492405 336.29678759 -449.82927508 334.21780475 -451.89819336 332.13330078 C-461.93476783 322.04197231 -471.69413987 315.85309094 -484.75 310.16796875 C-485.85601563 309.67425781 -486.96203125 309.18054687 -488.1015625 308.671875 C-489.7103125 307.96611328 -489.7103125 307.96611328 -491.3515625 307.24609375 C-492.79909912 306.6104248 -492.79909912 306.6104248 -494.27587891 305.96191406 C-497.26840122 304.86542517 -499.9472443 304.18179938 -503.125 303.91796875 C-503.785 304.57796875 -504.445 305.23796875 -505.125 305.91796875 C-510.97927713 306.64573995 -516.61251264 306.01271395 -522.125 303.91796875 C-523.04321533 303.17619385 -523.04321533 303.17619385 -523.97998047 302.41943359 C-526.54447484 300.62434591 -528.49284931 300.22956048 -531.5703125 299.70703125 C-533.17326172 299.42146362 -533.17326172 299.42146362 -534.80859375 299.13012695 C-535.94425781 298.93636475 -537.07992187 298.74260254 -538.25 298.54296875 C-547.81618797 296.81816811 -557.0855315 294.702198 -566.41015625 291.98046875 C-570.94909139 290.68226648 -575.47719924 289.72040956 -580.125 288.91796875 C-581.95846093 288.58533796 -583.79178917 288.25197517 -585.625 287.91796875 C-586.54796875 287.75296875 -587.4709375 287.58796875 -588.421875 287.41796875 C-590.91622607 286.95658589 -593.393613 286.4438256 -595.875 285.91796875 C-601.43865698 284.76594347 -607.06276457 284.18057004 -612.70703125 283.578125 C-616.125 282.91796875 -616.125 282.91796875 -618.734375 281.3203125 C-621.74116861 279.55652344 -623.1748708 279.84135101 -626.5625 280.41796875 C-631.39155648 280.98838079 -634.10661485 280.97959553 -638.125 277.91796875 C-644.99616444 270.14812341 -644.74304441 261.87502044 -644.29980469 251.921875 C-643.77653982 245.92333021 -641.2463959 241.67386813 -636.9375 237.60546875 C-633.58262226 234.96794068 -629.98583942 233.50631296 -626.0546875 231.91796875 C-623.37030977 230.52687422 -622.58412641 228.50460193 -621.125 225.91796875 C-615.62808222 222.94877871 -611.16044075 222.57345982 -605 222.54296875 C-597.2877417 222.28898544 -591.16517266 221.13643696 -584.109375 217.83105469 C-581.69657015 216.72083198 -579.25693646 215.68324605 -576.8125 214.64453125 C-567.82117025 210.8104019 -558.89051073 206.86509361 -550.0625 202.66796875 C-544.87396678 200.20667026 -539.68458535 197.75249785 -534.4375 195.41796875 C-533.36113281 194.93328125 -532.28476562 194.44859375 -531.17578125 193.94921875 C-527.96609618 192.86425478 -525.48802173 192.71628829 -522.125 192.91796875 C-521.465 194.23796875 -520.805 195.55796875 -520.125 196.91796875 C-519.444375 196.47066406 -518.76375 196.02335938 -518.0625 195.5625 C-509.73755546 190.37048007 -501.53995878 187.48375707 -492.125 184.91796875 C-491.38121094 184.71429687 -490.63742187 184.510625 -489.87109375 184.30078125 C-478.05567823 181.71037695 -465.04562087 186.87111413 -455.125 192.91796875 C-453.2890625 194.48046875 -453.2890625 194.48046875 -452.125 195.91796875 C-452.125 196.57796875 -452.125 197.23796875 -452.125 197.91796875 C-451.38894531 198.18351563 -450.65289063 198.4490625 -449.89453125 198.72265625 C-447.1547295 199.90513768 -445.17551515 201.2381792 -442.8125 203.04296875 C-438.33856633 206.25018626 -433.72024458 208.83042553 -428.8125 211.29296875 C-428.13082764 211.63859863 -427.44915527 211.98422852 -426.74682617 212.34033203 C-421.13399489 215.1001524 -417.0637484 216.33293774 -410.890625 215.203125 C-409.85897217 215.01548584 -408.82731934 214.82784668 -407.7644043 214.63452148 C-406.64590088 214.41868408 -405.52739746 214.20284668 -404.375 213.98046875 C-403.19268799 213.75883057 -402.01037598 213.53719238 -400.79223633 213.30883789 C-392.07597926 211.62267912 -383.49585921 209.5619054 -374.89358521 207.38143921 C-358.73905575 203.29856685 -342.70841011 200.70227263 -326.125 198.91796875 C-324.7572982 198.76814098 -323.38962283 198.61807176 -322.02197266 198.46777344 C-314.38623313 197.63259368 -306.74698539 196.83505594 -299.10546875 196.0546875 C-290.91657629 195.21785822 -282.73319543 194.33535063 -274.55078125 193.4375 C-249.28250738 190.6712774 -224.03319325 188.05498382 -198.68164062 186.18505859 C-193.49331984 185.79543593 -188.30900226 185.36096753 -183.125 184.91796875 C-182.88600165 172.12604162 -183.17174749 159.50584356 -184.27294922 146.75830078 C-184.84980604 139.9189983 -185.29826138 133.08518495 -185.6328125 126.23046875 C-185.69503494 124.95743896 -185.69503494 124.95743896 -185.7585144 123.65869141 C-185.96116966 119.45511885 -186.15445012 115.25126274 -186.33935547 111.046875 C-186.77103619 101.64586832 -187.5308316 92.34862888 -188.66162109 83.00537109 C-189.3270752 77.39747598 -189.7510978 71.76983433 -189.9375 66.125 C-190.03433553 63.25048349 -190.15389767 60.38144038 -190.30859375 57.50927734 C-190.50282073 53.75009337 -190.631202 49.99272882 -190.75 46.23046875 C-190.85755615 44.4208667 -190.85755615 44.4208667 -190.96728516 42.57470703 C-191.14147764 34.1269641 -191.14147764 34.1269641 -188.25073242 30.6887207 C-185.95506532 28.91017932 -183.61556624 27.40684812 -181.125 25.91796875 C-178.69887929 23.7921274 -176.33505884 21.6176178 -173.97265625 19.421875 C-172.125 17.91796875 -172.125 17.91796875 -170.125 17.91796875 C-169.795 14.94796875 -169.465 11.97796875 -169.125 8.91796875 C-160.64784264 5.01847636 -160.64784264 5.01847636 -156.125 4.91796875 C-153.33995806 7.02417938 -152.25880523 8.33638518 -151.46989441 11.76538086 C-151.39499283 12.8972583 -151.32009125 14.02913574 -151.24291992 15.1953125 C-151.17084163 16.16716995 -151.17084163 16.16716995 -151.09730721 17.15866089 C-150.93650914 19.39006949 -150.80262682 21.62233991 -150.66796875 23.85546875 C-150.55453168 25.50816858 -150.43940568 27.16075315 -150.32279968 28.81323242 C-150.05711145 32.6316797 -149.80391917 36.45073435 -149.55804443 40.27050781 C-149.12363486 46.99534914 -148.65949985 53.7180011 -148.19254327 60.44065094 C-147.06910512 76.62434503 -145.981448 92.81035957 -144.90047729 108.9969368 C-144.48515497 115.21304905 -144.06663375 121.42894297 -143.64738685 127.6447916 C-143.18902796 134.44173169 -142.73292623 141.23882147 -142.27782249 148.03598022 C-142.08599586 150.90030995 -141.89336779 153.76458405 -141.70006752 156.6288147 C-141.43225646 160.59874416 -141.16774026 164.56888939 -140.90356445 168.5390625 C-140.82412094 169.7107901 -140.74467743 170.8825177 -140.66282654 172.0897522 C-140.59143463 173.17058075 -140.52004272 174.2514093 -140.44648743 175.36499023 C-140.38401479 176.29826645 -140.32154215 177.23154266 -140.2571764 178.19309998 C-140.11590937 181.1053756 -140.10292038 184.00272548 -140.125 186.91796875 C-139.20976563 186.97855469 -138.29453125 187.03914062 -137.3515625 187.1015625 C-136.16304687 187.18535156 -134.97453125 187.26914062 -133.75 187.35546875 C-131.97496094 187.47728516 -131.97496094 187.47728516 -130.1640625 187.6015625 C-127.125 187.91796875 -127.125 187.91796875 -125.125 188.91796875 C-125.10011607 182.97721658 -125.0820535 177.03649535 -125.07006836 171.09570312 C-125.06506716 169.07844514 -125.05826406 167.06119072 -125.04956055 165.04394531 C-125.03730913 162.12954827 -125.03172941 159.21519952 -125.02734375 156.30078125 C-125.02218246 155.41182159 -125.01702118 154.52286194 -125.01170349 153.60696411 C-125.0112491 148.43243865 -125.33629199 143.39570998 -125.90138245 138.25350952 C-126.22141085 134.91101977 -126.2187267 131.60209659 -126.1875 128.24609375 C-126.17889289 126.78499433 -126.17043666 125.32389401 -126.16210938 123.86279297 C-126.15590576 123.09997009 -126.14970215 122.33714722 -126.14331055 121.5512085 C-125.99925295 102.80115151 -126.36152926 84.074451 -126.84043884 65.33132935 C-126.9265953 61.75255027 -126.992409 58.17346797 -127.06008911 54.59429932 C-127.12686752 51.84096947 -127.23574688 49.09119826 -127.34741211 46.33935547 C-127.39792185 44.54787807 -127.44751773 42.75637462 -127.49609375 40.96484375 C-127.53976074 40.15071014 -127.58342773 39.33657654 -127.62841797 38.49777222 C-127.73003499 33.26264203 -126.72814551 30.52760848 -123.16259766 26.66598511 C-120.93603693 24.59350924 -118.54709595 22.75437847 -116.125 20.91796875 C-115.795 20.25796875 -115.465 19.59796875 -115.125 18.91796875 C-114.465 18.91796875 -113.805 18.91796875 -113.125 18.91796875 C-113.125 18.25796875 -113.125 17.59796875 -113.125 16.91796875 C-109.84666158 13.25394345 -106.49732854 10.19157959 -102.125 7.91796875 C-98.4375 7.85546875 -98.4375 7.85546875 -95.125 8.91796875 C-91.52095942 13.36295214 -91.00636305 17.82355611 -90.95141602 23.39135742 C-90.93792618 24.49158737 -90.92443634 25.59181732 -90.91053772 26.72538757 C-90.90009933 27.91686905 -90.88966095 29.10835052 -90.87890625 30.3359375 C-90.84589497 32.89778894 -90.81268486 35.45963782 -90.77929688 38.02148438 C-90.73147864 42.02901591 -90.68818756 46.03657167 -90.64819336 50.04418945 C-90.49952581 64.26197006 -90.13372097 78.34867035 -88.85527039 92.51193237 C-87.72670351 105.5632843 -87.66024062 118.63830964 -87.5 131.73046875 C-87.46163018 134.27019285 -87.42256919 136.80990661 -87.3828125 139.34960938 C-87.34572126 141.87889705 -87.30924326 144.4081938 -87.2734375 146.9375 C-87.25783783 148.02698441 -87.24223816 149.11646881 -87.22616577 150.2389679 C-87.0657304 163.46654885 -87.125 176.68662465 -87.125 189.91796875 C-67.325 191.23796875 -47.525 192.55796875 -27.125 193.91796875 C-28.61 185.50296875 -28.61 185.50296875 -30.125 176.91796875 C-30.84170943 170.60589619 -31.21703329 164.39239069 -31.36499023 158.04711914 C-31.7285461 142.98464459 -32.89065895 127.99780499 -34.0625 112.98046875 C-35.30347465 97.049434 -36.50165235 81.12389177 -37.375 65.16796875 C-37.4158371 64.43683868 -37.45667419 63.70570862 -37.49874878 62.9524231 C-37.73913587 58.60863523 -37.93830893 54.26445228 -38.125 49.91796875 C-38.18623047 49.05365234 -38.24746094 48.18933594 -38.31054688 47.29882812 C-38.60337431 41.32412094 -36.89515182 37.15585406 -34.125 31.91796875 C-33.70234863 31.0976416 -33.27969727 30.27731445 -32.84423828 29.43212891 C-31.48928003 26.84709563 -30.09468495 24.28740316 -28.6875 21.73046875 C-28.22279297 20.86744141 -27.75808594 20.00441406 -27.27929688 19.11523438 C-21.46123301 8.50964237 -13.43486734 -1.70405486 0 0 Z " fill="#6E6E6E" transform="translate(1356.125,760.08203125)"/>
<path d="M0 0 C2.29066698 3.43600047 2.38179553 5.10823968 2.68896484 9.18188477 C2.74001499 9.83137274 2.79106514 10.48086071 2.84366226 11.15003014 C3.01689648 13.39239463 3.17651783 15.63551965 3.3359375 17.87890625 C3.45988891 19.53629204 3.58428642 21.19364451 3.70907593 22.85096741 C5.9805847 53.42484892 7.91320257 84.02572568 9.93414307 114.61700439 C10.48959551 123.02361863 11.04633123 131.43014423 11.60662591 139.83643728 C11.89218023 144.12285251 12.17523882 148.40942256 12.45630288 152.69613445 C12.67140548 155.96675207 12.88993801 159.23714092 13.10791016 162.50756836 C13.18375839 163.67570068 13.25960663 164.84383301 13.3377533 166.04736328 C13.69867671 171.41510939 14.19945336 176.68211432 15 182 C15.01937922 184.75738562 14.99662761 187.49489211 14.9375 190.25 C14.75310731 208.34579249 16.80578164 226.41528798 18.55859375 244.40625 C19.67892056 255.97582457 20.1357432 267.38641468 20 279 C20.66 279 21.32 279 22 279 C22.125 284.75 22.125 284.75 21 287 C17.7962798 287.76279052 15.04221818 288.00243566 11.75 287.8125 C8.10135317 287.99493234 6.2704008 288.61559541 3 290.0625 C-1.43523656 291.95370102 -4.25737023 292.48788385 -9 291 C-9.845625 290.319375 -10.69125 289.63875 -11.5625 288.9375 C-14.61311559 286.51265171 -16.20430734 286.83496988 -20 287 C-23 285 -23 285 -23.65625 282.94189453 C-24.12370451 278.94130731 -24.32951274 274.95275088 -24.5 270.9296875 C-24.54060547 270.05281281 -24.58121094 269.17593811 -24.62304688 268.27249146 C-24.75230715 265.47347829 -24.87657343 262.67427602 -25 259.875 C-25.65582171 243.91384835 -25.65582171 243.91384835 -27 228 C-27.66 228.33 -28.32 228.66 -29 229 C-31.80301056 229.08293078 -34.58062213 229.10468288 -37.38330078 229.08178711 C-38.25212387 229.07872055 -39.12094696 229.07565399 -40.01609802 229.07249451 C-41.91111281 229.06532349 -43.80612014 229.05592531 -45.70111465 229.04459953 C-48.72391504 229.02717891 -51.74666213 229.01689558 -54.76950073 229.00868225 C-63.36819523 228.98429129 -71.96682012 228.94936798 -80.56542969 228.90405273 C-113.3440173 228.55741659 -113.3440173 228.55741659 -146 231 C-147.89782227 231.21281616 -147.89782227 231.21281616 -149.83398438 231.42993164 C-152.79062619 231.77590769 -155.73859228 232.15656878 -158.6875 232.5625 C-164.48801916 233.34853283 -170.25160707 234.0411245 -176.09375 234.4296875 C-184.39798521 235.02931799 -192.58697938 236.3107714 -200.8125 237.5625 C-202.39121281 237.79925013 -203.96998859 238.03558084 -205.54882812 238.27148438 C-209.36662632 238.84283796 -213.18353506 239.41981038 -217 240 C-213.51896996 242.88943001 -210.84643357 244.59304628 -206.5 245.875 C-201.240446 247.68961702 -198.86924029 249.21793285 -196 254 C-194.52586915 257.98882465 -194.9006605 260.31118182 -196.625 264.0625 C-200.10689273 270.28269481 -204.98474283 273.77553568 -210.84765625 277.58984375 C-215.68365347 280.60994269 -215.68365347 280.60994269 -219 285.0625 C-220 287 -220 287 -222.4375 288.1875 C-225.2994572 290.21181119 -225.3827799 290.61499461 -226.25 293.8125 C-227.31728708 297.64979807 -228.90847346 300.47763297 -231.2175293 303.71923828 C-238.54310942 314.03691547 -240.36220202 324.91220482 -241.72290039 337.29858398 C-242.4344786 343.76916946 -242.94013017 347.69911065 -248 352 C-251.08845456 353.54422728 -254.18743204 353.01767465 -257.58984375 352.9375 C-260.14566188 352.88659364 -260.14566188 352.88659364 -263 354 C-265.44723505 352.84764645 -267.64342488 351.65906579 -269.9375 350.25 C-270.94067261 349.63862183 -270.94067261 349.63862183 -271.96411133 349.01489258 C-278.71041375 344.76543658 -284.38221007 339.6289919 -290 334 C-290.51191895 333.48969238 -291.02383789 332.97938477 -291.55126953 332.45361328 C-293.62992405 330.37881884 -295.70427508 328.299836 -297.77319336 326.21533203 C-307.80976783 316.12400356 -317.56913987 309.93512219 -330.625 304.25 C-331.73101563 303.75628906 -332.83703125 303.26257812 -333.9765625 302.75390625 C-335.5853125 302.04814453 -335.5853125 302.04814453 -337.2265625 301.328125 C-338.67409912 300.69245605 -338.67409912 300.69245605 -340.15087891 300.04394531 C-343.14340122 298.94745642 -345.8222443 298.26383063 -349 298 C-349.66 298.66 -350.32 299.32 -351 300 C-356.85427713 300.7277712 -362.48751264 300.0947452 -368 298 C-368.91821533 297.2582251 -368.91821533 297.2582251 -369.85498047 296.50146484 C-372.41947484 294.70637716 -374.36784931 294.31159173 -377.4453125 293.7890625 C-379.04826172 293.50349487 -379.04826172 293.50349487 -380.68359375 293.2121582 C-381.81925781 293.018396 -382.95492187 292.82463379 -384.125 292.625 C-393.69118797 290.90019936 -402.9605315 288.78422925 -412.28515625 286.0625 C-416.82409139 284.76429773 -421.35219924 283.80244081 -426 283 C-427.83346093 282.66736921 -429.66678917 282.33400642 -431.5 282 C-432.42296875 281.835 -433.3459375 281.67 -434.296875 281.5 C-436.79122607 281.03861714 -439.268613 280.52585685 -441.75 280 C-447.31365698 278.84797472 -452.93776457 278.26260129 -458.58203125 277.66015625 C-462 277 -462 277 -464.609375 275.40234375 C-467.61616861 273.63855469 -469.0498708 273.92338226 -472.4375 274.5 C-477.26655648 275.07041204 -479.98161485 275.06162678 -484 272 C-490.87116444 264.23015466 -490.61804441 255.95705169 -490.17480469 246.00390625 C-489.65153982 240.00536146 -487.1213959 235.75589938 -482.8125 231.6875 C-479.45762226 229.04997193 -475.86083942 227.58834421 -471.9296875 226 C-469.24530977 224.60890547 -468.45912641 222.58663318 -467 220 C-461.50308222 217.03080996 -457.03544075 216.65549107 -450.875 216.625 C-443.1627417 216.37101669 -437.04017266 215.21846821 -429.984375 211.91308594 C-427.57157015 210.80286323 -425.13193646 209.7652773 -422.6875 208.7265625 C-413.69617025 204.89243315 -404.76551073 200.94712486 -395.9375 196.75 C-390.74896678 194.28870151 -385.55958535 191.8345291 -380.3125 189.5 C-379.23613281 189.0153125 -378.15976562 188.530625 -377.05078125 188.03125 C-373.84109618 186.94628603 -371.36302173 186.79831954 -368 187 C-367.34 188.32 -366.68 189.64 -366 191 C-365.319375 190.55269531 -364.63875 190.10539063 -363.9375 189.64453125 C-355.61255546 184.45251132 -347.41495878 181.56578832 -338 179 C-337.25621094 178.79632812 -336.51242187 178.59265625 -335.74609375 178.3828125 C-323.93067823 175.7924082 -310.92062087 180.95314538 -301 187 C-299.1640625 188.5625 -299.1640625 188.5625 -298 190 C-298 190.66 -298 191.32 -298 192 C-297.26394531 192.26554688 -296.52789063 192.53109375 -295.76953125 192.8046875 C-293.0297295 193.98716893 -291.05051515 195.32021045 -288.6875 197.125 C-284.21356633 200.33221751 -279.59524458 202.91245678 -274.6875 205.375 C-274.00582764 205.72062988 -273.32415527 206.06625977 -272.62182617 206.42236328 C-267.00899489 209.18218365 -262.9387484 210.41496899 -256.765625 209.28515625 C-255.73397217 209.09751709 -254.70231934 208.90987793 -253.6394043 208.71655273 C-252.52090088 208.50071533 -251.40239746 208.28487793 -250.25 208.0625 C-249.06768799 207.84086182 -247.88537598 207.61922363 -246.66723633 207.39086914 C-237.95097926 205.70471037 -229.37085921 203.64393665 -220.76858521 201.46347046 C-204.61405575 197.3805981 -188.58341011 194.78430388 -172 193 C-170.6322982 192.85017223 -169.26462283 192.70010301 -167.89697266 192.54980469 C-160.26123313 191.71462493 -152.62198539 190.91708719 -144.98046875 190.13671875 C-136.79157629 189.29988947 -128.60819543 188.41738188 -120.42578125 187.51953125 C-95.15750738 184.75330865 -69.90819325 182.13701507 -44.55664062 180.26708984 C-39.36831984 179.87746718 -34.18400226 179.44299878 -29 179 C-28.76100165 166.20807287 -29.04674749 153.58787481 -30.14794922 140.84033203 C-30.72480604 134.00102955 -31.17326138 127.1672162 -31.5078125 120.3125 C-31.57003494 119.03947021 -31.57003494 119.03947021 -31.6335144 117.74072266 C-31.83616966 113.5371501 -32.02945012 109.33329399 -32.21435547 105.12890625 C-32.64603619 95.72789957 -33.4058316 86.43066013 -34.53662109 77.08740234 C-35.2020752 71.47950723 -35.6260978 65.85186558 -35.8125 60.20703125 C-35.90933553 57.33251474 -36.02889767 54.46347163 -36.18359375 51.59130859 C-36.37782073 47.83212462 -36.506202 44.07476007 -36.625 40.3125 C-36.73255615 38.50289795 -36.73255615 38.50289795 -36.84228516 36.65673828 C-37.01647764 28.20899535 -37.01647764 28.20899535 -34.12573242 24.77075195 C-31.83006532 22.99221057 -29.49056624 21.48887937 -27 20 C-24.57387929 17.87415865 -22.21005884 15.69964905 -19.84765625 13.50390625 C-18 12 -18 12 -16 12 C-15.67 9.03 -15.34 6.06 -15 3 C-4.73189824 -1.45596869 -4.73189824 -1.45596869 0 0 Z " fill="#6E6E6E" transform="translate(1202,766)"/>
<path d="M0 0 C1.8359375 1.5625 1.8359375 1.5625 3 3 C3 3.66 3 4.32 3 5 C3.73605469 5.26554688 4.47210937 5.53109375 5.23046875 5.8046875 C7.9702705 6.98716893 9.94948485 8.32021045 12.3125 10.125 C17.47097808 13.8475326 22.91953912 16.60409817 28.6418457 19.33447266 C33.81698313 21.81698313 33.81698313 21.81698313 36 24 C31.52828818 26.09876205 27.19025415 26.68945791 22.34375 27.2890625 C21.49652374 27.39757538 20.64929749 27.50608826 19.77639771 27.6178894 C17.01884133 27.96480931 14.25990029 28.29727041 11.5 28.625 C10.56081726 28.73739014 9.62163452 28.84978027 8.6539917 28.96557617 C-3.36019278 30.38018461 -15.27044643 31.47892887 -27.375 31.5 C-28.49326172 31.50596191 -29.61152344 31.51192383 -30.76367188 31.51806641 C-37.29061523 31.4173912 -43.12648425 30.4516438 -49.40380859 28.65698242 C-52.74075025 27.81254853 -55.58215697 27.76696525 -59 28 C-59.09949951 28.62092529 -59.19899902 29.24185059 -59.30151367 29.8815918 C-60 32 -60 32 -63.17578125 33.89453125 C-64.54899133 34.54599906 -65.92834761 35.18461592 -67.3125 35.8125 C-68.76819768 36.51037667 -70.22261372 37.21093257 -71.67578125 37.9140625 C-72.4023291 38.26243164 -73.12887695 38.61080078 -73.87744141 38.96972656 C-76.96513569 40.46846936 -79.98836126 42.03955431 -83 43.6875 C-84.4540625 44.46673828 -84.4540625 44.46673828 -85.9375 45.26171875 C-88.24857167 46.83484944 -88.24857167 46.83484944 -88.4609375 49.5390625 C-87.87490641 52.66787256 -86.46182917 54.05795543 -83.95141602 55.9465332 C-81.74591431 57.13716749 -79.86608986 57.59644441 -77.40234375 58.04296875 C-76.51611328 58.20482666 -75.62988281 58.36668457 -74.71679688 58.53344727 C-73.37198242 58.76439087 -73.37198242 58.76439087 -72 59 C-71.19626953 59.14429443 -70.39253906 59.28858887 -69.56445312 59.43725586 C-25.03648115 67.0854308 24.07907194 60.84483436 68.3059082 53.44702148 C74.29923684 52.45256886 80.67788354 51.67307631 86.0625 54.75 C87.5165625 55.86375 87.5165625 55.86375 89 57 C90.84093669 57.66295637 92.69702832 58.28459806 94.5625 58.875 C99.78313128 60.69334232 102.14881775 62.24802958 105 67 C106.47413085 70.98882465 106.0993395 73.31118182 104.375 77.0625 C100.89310727 83.28269481 96.01525717 86.77553568 90.15234375 90.58984375 C85.31634653 93.60994269 85.31634653 93.60994269 82 98.0625 C81 100 81 100 78.5625 101.1875 C75.7005428 103.21181119 75.6172201 103.61499461 74.75 106.8125 C73.68271292 110.64979807 72.09152654 113.47763297 69.7824707 116.71923828 C62.45689058 127.03691547 60.63779798 137.91220482 59.27709961 150.29858398 C58.5655214 156.76916946 58.05986983 160.69911065 53 165 C49.91154544 166.54422728 46.81256796 166.01767465 43.41015625 165.9375 C40.85433812 165.88659364 40.85433812 165.88659364 38 167 C35.55276495 165.84764645 33.35657512 164.65906579 31.0625 163.25 C30.05932739 162.63862183 30.05932739 162.63862183 29.03588867 162.01489258 C22.28958625 157.76543658 16.61778993 152.6289919 11 147 C10.48808105 146.48969238 9.97616211 145.97938477 9.44873047 145.45361328 C7.37007595 143.37881884 5.29572492 141.299836 3.22680664 139.21533203 C-6.80976783 129.12400356 -16.56913987 122.93512219 -29.625 117.25 C-30.73101563 116.75628906 -31.83703125 116.26257812 -32.9765625 115.75390625 C-34.0490625 115.28339844 -35.1215625 114.81289062 -36.2265625 114.328125 C-37.19158691 113.9043457 -38.15661133 113.48056641 -39.15087891 113.04394531 C-42.14340122 111.94745642 -44.8222443 111.26383063 -48 111 C-48.66 111.66 -49.32 112.32 -50 113 C-55.85427713 113.7277712 -61.48751264 113.0947452 -67 111 C-67.61214355 110.5054834 -68.22428711 110.0109668 -68.85498047 109.50146484 C-71.41947484 107.70637716 -73.36784931 107.31159173 -76.4453125 106.7890625 C-77.51394531 106.59868408 -78.58257813 106.40830566 -79.68359375 106.2121582 C-80.81925781 106.018396 -81.95492187 105.82463379 -83.125 105.625 C-92.69118797 103.90019936 -101.9605315 101.78422925 -111.28515625 99.0625 C-115.82409139 97.76429773 -120.35219924 96.80244081 -125 96 C-126.83346093 95.66736921 -128.66678917 95.33400642 -130.5 95 C-131.42296875 94.835 -132.3459375 94.67 -133.296875 94.5 C-135.79122607 94.03861714 -138.268613 93.52585685 -140.75 93 C-146.31365698 91.84797472 -151.93776457 91.26260129 -157.58203125 90.66015625 C-161 90 -161 90 -163.609375 88.40234375 C-166.61616861 86.63855469 -168.0498708 86.92338226 -171.4375 87.5 C-176.26655648 88.07041204 -178.98161485 88.06162678 -183 85 C-189.87116444 77.23015466 -189.61804441 68.95705169 -189.17480469 59.00390625 C-188.65153982 53.00536146 -186.1213959 48.75589938 -181.8125 44.6875 C-178.45762226 42.04997193 -174.86083942 40.58834421 -170.9296875 39 C-168.24530977 37.60890547 -167.45912641 35.58663318 -166 33 C-160.50308222 30.03080996 -156.03544075 29.65549107 -149.875 29.625 C-142.1627417 29.37101669 -136.04017266 28.21846821 -128.984375 24.91308594 C-126.57157015 23.80286323 -124.13193646 22.7652773 -121.6875 21.7265625 C-112.69617025 17.89243315 -103.76551073 13.94712486 -94.9375 9.75 C-89.74896678 7.28870151 -84.55958535 4.8345291 -79.3125 2.5 C-78.23613281 2.0153125 -77.15976562 1.530625 -76.05078125 1.03125 C-72.84109618 -0.05371397 -70.36302173 -0.20168046 -67 0 C-66.01 1.98 -66.01 1.98 -65 4 C-64.319375 3.55269531 -63.63875 3.10539063 -62.9375 2.64453125 C-54.61255546 -2.54748868 -46.41495878 -5.43421168 -37 -8 C-36.25621094 -8.20367188 -35.51242187 -8.40734375 -34.74609375 -8.6171875 C-22.93067823 -11.2075918 -9.92062087 -6.04685462 0 0 Z " fill="#C4EFD2" transform="translate(901,953)"/>
<path d="M0 0 C10.77716762 1.62966454 21.41048103 3.89964341 32.0625 6.1875 C32.98841949 6.38597534 33.91433899 6.58445068 34.86831665 6.78894043 C54.23355857 10.95270027 73.6258 15.19257856 92.3359375 21.78125 C95.05039535 22.68414003 97.71695894 23.48563968 100.4765625 24.21875 C112.85499654 27.51457883 124.65665741 31.83915287 136.55322266 36.53857422 C143.93439493 39.45024579 151.32543922 42.23650645 158.875 44.6875 C159.70241699 44.95892822 160.52983398 45.23035645 161.38232422 45.51000977 C164.83573543 46.64176328 168.2900416 47.77053761 171.74804688 48.88818359 C190.39907648 54.98955283 207.67420218 63.37063393 225.19091797 72.10742188 C229.74713829 74.37691848 234.33240153 76.58151666 238.9375 78.75 C239.64173096 79.08362549 240.34596191 79.41725098 241.0715332 79.76098633 C245.51254059 81.8563666 249.97488514 83.90175796 254.4453125 85.93359375 C266.50714111 91.43545106 278.38858111 97.09320316 290.0625 103.375 C291.10156494 103.93340576 292.14062988 104.49181152 293.21118164 105.06713867 C302.44290516 110.10623024 311.46671466 115.34833726 319.4375 122.25 C319.97697266 122.71325684 320.51644531 123.17651367 321.07226562 123.65380859 C324.29387958 126.44029791 327.42110544 129.31423948 330.52001953 132.23583984 C343.42015464 144.34434674 363.55967353 159.05467389 382.0625 160.1875 C382.701875 160.125625 383.34125 160.06375 384 160 C384.33 158.68 384.66 157.36 385 156 C383.93523437 155.64808594 382.87046875 155.29617188 381.7734375 154.93359375 C372.06792329 151.65611539 363.03518454 147.83976605 354 143 C354 142.34 354 141.68 354 141 C357.12343982 142.2227665 360.21249397 143.51355595 363.29296875 144.83984375 C374.62624775 149.76654531 374.62624775 149.76654531 386.3828125 153.52734375 C388 154 388 154 389 155 C389.5625 157.6875 389.5625 157.6875 389 161 C384.44582352 165.92965379 378.1385401 168.58437079 372 171 C372.13019531 171.59167969 372.26039063 172.18335938 372.39453125 172.79296875 C373.14771747 177.10795146 373.44365186 179.23508301 371.1875 183.125 C365.47734215 186.48391638 360.63711666 184.6578238 354.4609375 183.1171875 C339.3307658 178.9298207 325.0871208 171.817951 311.96777344 163.27246094 C309.5455058 161.70610127 307.10506791 160.16980477 304.6640625 158.6328125 C302.71327381 157.40146593 300.76275461 156.16969231 298.8125 154.9375 C297.89750732 154.3597583 296.98251465 153.7820166 296.03979492 153.18676758 C291.59770003 150.36194608 287.22149902 147.480996 282.92578125 144.4375 C278.19755512 141.09563791 273.32636952 138.05992897 268.375 135.0625 C260.34017009 130.15398107 252.48972127 125.01935307 244.6875 119.75 C214.87387967 99.74123693 182.3180265 85.25097446 147.88110352 75.22900391 C141.03539585 73.23203073 134.30689285 71.11109547 127.625 68.625 C117.55138249 64.93521259 107.21078774 62.15724912 96.875 59.3125 C95.60429657 58.96085785 95.60429657 58.96085785 94.30792236 58.60211182 C85.27059291 56.10865543 76.21399151 53.74158458 67.0703125 51.66796875 C66.33038055 51.49759598 65.59044861 51.32722321 64.82809448 51.15168762 C61.16008835 50.34258664 57.7591284 49.80362762 54 50 C54.01571045 50.6297876 54.0314209 51.2595752 54.04760742 51.90844727 C54.11040232 54.79303825 54.14913058 57.67748486 54.1875 60.5625 C54.21263672 61.55314453 54.23777344 62.54378906 54.26367188 63.56445312 C54.34817382 72.04281461 52.86675571 77.56549374 47 84 C43.54210243 85.72894879 39.78789066 85.35251098 36 85 C31.85076729 83.45420742 29.07927001 81.23963567 25.78515625 78.33203125 C22.80338418 76.10712036 19.44450964 74.65988708 16.07421875 73.11328125 C14 72 14 72 13 70 C12.84504237 67.75025839 12.74989072 65.49628464 12.68359375 63.2421875 C12.66281265 62.57913605 12.64203156 61.91608459 12.62062073 61.23294067 C12.55520769 59.11373306 12.49627895 56.994401 12.4375 54.875 C12.39430691 53.43878919 12.35069236 52.00259098 12.30664062 50.56640625 C12.19953501 47.04440406 12.09824425 43.52226175 12 40 C9.03 39.67 6.06 39.34 3 39 C0.62079991 26.08764223 0.37936071 13.09257082 0 0 Z " fill="#636363" transform="translate(1377,973)"/>
<path d="M0 0 C0.07402368 5.65996416 0.12854173 11.31964811 0.16479492 16.97998047 C0.17990395 18.90646267 0.20039214 20.83291035 0.22631836 22.75927734 C0.26260925 25.52450057 0.27970479 28.28927004 0.29296875 31.0546875 C0.30845261 31.9193161 0.32393646 32.7839447 0.33988953 33.67477417 C0.34057617 36.10107422 0.34057617 36.10107422 0 40 C-3.8652562 42.57683747 -7.01983473 42.25164861 -11.49682617 42.1953125 C-12.36579529 42.19239197 -13.2347644 42.18947144 -14.13006592 42.1864624 C-16.0223485 42.17884193 -17.91461673 42.16659986 -19.80684471 42.15032959 C-22.82554842 42.12472365 -25.84407512 42.11174564 -28.86286926 42.10205078 C-36.38055431 42.07533632 -43.89807711 42.02757428 -51.41564941 41.97924805 C-85.77114955 41.50981869 -85.77114955 41.50981869 -120 44 C-121.26529541 44.14195801 -122.53059082 44.28391602 -123.83422852 44.43017578 C-126.79081297 44.77595213 -129.73867253 45.15657983 -132.6875 45.5625 C-138.51270839 46.35187848 -144.30109974 47.04495346 -150.16796875 47.4375 C-158.05179675 48.00750666 -165.8209472 49.22555369 -173.625 50.4375 C-183.34214581 51.94487196 -193.03827278 53.26584942 -202.82348633 54.24914551 C-208.28427866 54.80299022 -213.72391581 55.45509553 -219.1640625 56.18359375 C-259.46073723 61.55460027 -300.69761213 66.31448988 -341.25 61.1875 C-341.91533752 61.10490936 -342.58067505 61.02231873 -343.26617432 60.93722534 C-351.56941828 59.87450664 -358.50493716 58.91970876 -364 52 C-364.75 49.5625 -364.75 49.5625 -364 47 C-361.58144466 44.91811856 -358.79003921 43.52573573 -356 42 C-355.04738281 41.41734375 -354.09476563 40.8346875 -353.11328125 40.234375 C-338.06120464 31.06051013 -338.06120464 31.06051013 -330.73046875 32.58203125 C-329.21290685 32.98003619 -327.6986942 33.39096217 -326.1875 33.8125 C-282.92920895 43.85758804 -231.07621502 30.34021828 -188.75201416 20.29373169 C-168.33617909 15.47336607 -147.68291713 13.36571328 -126.84451294 11.22587585 C-118.24477037 10.34136632 -109.64816588 9.4308694 -101.05329895 8.50018692 C-47.96001271 2.75152264 -47.96001271 2.75152264 -27.125 1.0625 C-26.04593384 0.97307129 -26.04593384 0.97307129 -24.94506836 0.88183594 C-16.61300528 0.1997585 -8.35981214 -0.14917789 0 0 Z " fill="#636363" transform="translate(1176,953)"/>
<path d="M0 0 C10.77716762 1.62966454 21.41048103 3.89964341 32.0625 6.1875 C32.98841949 6.38597534 33.91433899 6.58445068 34.86831665 6.78894043 C54.23355857 10.95270027 73.6258 15.19257856 92.3359375 21.78125 C95.05039535 22.68414003 97.71695894 23.48563968 100.4765625 24.21875 C112.85499654 27.51457883 124.65665741 31.83915287 136.55322266 36.53857422 C143.93439493 39.45024579 151.32543922 42.23650645 158.875 44.6875 C159.70241699 44.95892822 160.52983398 45.23035645 161.38232422 45.51000977 C164.83573543 46.64176328 168.2900416 47.77053761 171.74804688 48.88818359 C190.39907648 54.98955283 207.67420218 63.37063393 225.19091797 72.10742188 C229.74713829 74.37691848 234.33240153 76.58151666 238.9375 78.75 C239.64173096 79.08362549 240.34596191 79.41725098 241.0715332 79.76098633 C245.51254059 81.8563666 249.97488514 83.90175796 254.4453125 85.93359375 C266.50714111 91.43545106 278.38858111 97.09320316 290.0625 103.375 C291.10156494 103.93340576 292.14062988 104.49181152 293.21118164 105.06713867 C302.44290516 110.10623024 311.46671466 115.34833726 319.4375 122.25 C319.97697266 122.71325684 320.51644531 123.17651367 321.07226562 123.65380859 C324.29387958 126.44029791 327.42110544 129.31423948 330.52001953 132.23583984 C343.42015464 144.34434674 363.55967353 159.05467389 382.0625 160.1875 C382.701875 160.125625 383.34125 160.06375 384 160 C384.33 158.68 384.66 157.36 385 156 C383.93523437 155.64808594 382.87046875 155.29617188 381.7734375 154.93359375 C372.06792329 151.65611539 363.03518454 147.83976605 354 143 C354 142.34 354 141.68 354 141 C357.12343982 142.2227665 360.21249397 143.51355595 363.29296875 144.83984375 C374.62624775 149.76654531 374.62624775 149.76654531 386.3828125 153.52734375 C388 154 388 154 389 155 C389.5625 157.6875 389.5625 157.6875 389 161 C384.69823733 165.65642927 378.10112337 169.33709983 372 171 C368.83328046 170.56646102 366.12885893 169.22502391 363.25 167.875 C359.95440518 166.33005316 356.67234202 164.87079733 353.28515625 163.53515625 C343.29986707 159.57362834 335.36408148 154.25744491 326.98681641 147.58056641 C315.96307581 138.8108814 304.5518767 130.91264027 292.53710938 123.56103516 C290.70268417 122.43234821 288.87689611 121.28958276 287.05664062 120.13818359 C278.87188982 114.99831027 270.48853392 110.49266484 261.875 106.125 C259.81176489 105.07166838 257.74945158 104.01654788 255.68722534 102.96124268 C254.33216195 102.26789992 252.97679887 101.57514252 251.62112427 100.88299561 C246.25968818 98.14313764 240.93817385 95.33222202 235.625 92.5 C214.49052882 81.32537343 192.44359032 71.82827741 169.91186523 63.85205078 C163.82377459 61.6926022 157.84632119 59.33707554 151.875 56.875 C144.52542146 53.86710352 137.13179074 51.41620261 129.50390625 49.21826172 C123.55517026 47.49717789 117.71059523 45.57160527 111.875 43.5 C111.04121826 43.20617432 110.20743652 42.91234863 109.34838867 42.60961914 C106.15314662 41.48131781 102.95913392 40.35095917 99.77685547 39.18652344 C89.76692169 35.52717279 79.8533701 32.99880121 69.37548828 31.04125977 C63.05224195 29.84825692 56.79176921 28.51014664 50.54296875 26.98046875 C49.81670288 26.80281982 49.09043701 26.6251709 48.34216309 26.44213867 C46.86347235 26.07994709 45.38481442 25.71762154 43.90618896 25.35516357 C30.98652619 22.19517563 18.3262961 19.65485484 5 19 C5.42523816 20.60746056 5.86570126 22.21089836 6.3125 23.8125 C6.55613281 24.70582031 6.79976562 25.59914063 7.05078125 26.51953125 C8.03359006 29.0877765 9.07682365 30.1205322 11 32 C10.6875 34.6875 10.6875 34.6875 10 37 C10.99 37.66 11.98 38.32 13 39 C12.67 40.32 12.34 41.64 12 43 C12 42.01 12 41.02 12 40 C9.03 39.67 6.06 39.34 3 39 C0.62079991 26.08764223 0.37936071 13.09257082 0 0 Z " fill="#4E4E4E" transform="translate(1377,973)"/>
<path d="M0 0 C15.33173774 -0.22029029 30.56966159 0.45144292 45.875 1.3125 C47.08734314 1.37936005 48.29968628 1.44622009 49.54876709 1.5151062 C71.8580623 2.75434779 93.92125825 4.47868729 116 8 C116.04962457 12.87465957 116.08582554 17.74917041 116.10986328 22.62402344 C116.11988957 24.28062503 116.13351406 25.93720907 116.15087891 27.59375 C116.17527621 29.98181505 116.18651694 32.36964508 116.1953125 34.7578125 C116.20563507 35.49242706 116.21595764 36.22704163 116.22659302 36.98391724 C116.22754068 41.37696359 115.62276337 44.91782363 114 49 C113.35788574 48.91959473 112.71577148 48.83918945 112.05419922 48.75634766 C99.53078065 47.19731437 87.01992127 45.7054483 74.43505859 44.73486328 C68.51353477 44.24817838 62.8012819 43.27981948 57 42 C57.16226074 42.75434326 57.32452148 43.50868652 57.49169922 44.28588867 C59.14930613 53.13680898 58.09026325 62.96654355 57.5625 71.9375 C57.50376709 72.97547729 57.50376709 72.97547729 57.44384766 74.03442383 C57.12423462 78.87576538 57.12423462 78.87576538 56 80 C51.91910634 80.32647149 49.34376906 80.15000832 45.5625 78.5 C42.05597443 76.71073815 42.05597443 76.71073815 38.1875 77.25 C33.17941382 77.48521344 30.01543431 74.75731154 26.1015625 71.921875 C24.03185224 70.02912881 23.03779943 68.57739199 22 66 C21.34 66 20.68 66 20 66 C17.68173545 57.30650793 19.15184339 47.81477051 20 39 C19.20335937 39.02320313 18.40671875 39.04640625 17.5859375 39.0703125 C16.52632812 39.08835937 15.46671875 39.10640625 14.375 39.125 C12.80878906 39.15980469 12.80878906 39.15980469 11.2109375 39.1953125 C7.81958334 38.98902575 5.18852193 38.12513167 2 37 C1.66038964 32.70880631 1.3294676 28.41698339 1 24.125 C0.90460938 22.92101562 0.80921875 21.71703125 0.7109375 20.4765625 C0.19032942 13.63428483 -0.14267384 6.86221524 0 0 Z " fill="#656565" transform="translate(1216,957)"/>
<path d="M0 0 C0 5.28 0 10.56 0 16 C-3.2788916 16.16604736 -3.2788916 16.16604736 -6.62402344 16.33544922 C-13.97212385 16.70799521 -21.32005717 17.08376366 -28.66791916 17.46098137 C-33.10845414 17.68885173 -37.54903382 17.91574594 -41.98974609 18.14013672 C-82.26462933 20.14311871 -82.26462933 20.14311871 -122.42382812 23.72021484 C-125.1720922 24.01869007 -127.92188575 24.29992188 -130.671875 24.58203125 C-147.92999342 26.41019242 -165.01585316 29.13830569 -182.1413269 31.90820312 C-189.29178007 33.05907421 -196.45565314 34.09835453 -203.625 35.125 C-211.56021398 36.27569532 -219.44732666 37.56245029 -227.3125 39.125 C-228.11316895 39.28371582 -228.91383789 39.44243164 -229.73876953 39.60595703 C-232.95140673 40.26912568 -235.99663596 40.99886316 -239.109375 42.05078125 C-242.39092612 43.12837169 -245.51275237 43.61999732 -248.9375 44.0625 C-250.68353516 44.29646484 -250.68353516 44.29646484 -252.46484375 44.53515625 C-265.34313778 45.96319903 -278.30246251 46.34278412 -291.25 46.4375 C-292.55162582 46.44725861 -292.55162582 46.44725861 -293.87954712 46.45721436 C-311.14534439 46.51627118 -327.88177882 44.67171712 -344 38 C-343 35 -343 35 -341.2434082 33.98706055 C-335.16296354 31.86282162 -331.30205917 32.10688333 -325.1875 33.8125 C-281.92920895 43.85758804 -230.07621502 30.34021828 -187.75201416 20.29373169 C-167.33617909 15.47336607 -146.68291713 13.36571328 -125.84451294 11.22587585 C-117.24477601 10.3413669 -108.64817731 9.43086966 -100.05331612 8.50018692 C-46.93788898 2.74917416 -46.93788898 2.74917416 -26.0625 1.0625 C-24.97702881 0.97307129 -24.97702881 0.97307129 -23.86962891 0.88183594 C-15.88875063 0.2323806 -8.00714896 -0.11664227 0 0 Z " fill="#4E4E4E" transform="translate(1175,953)"/>
<path d="M0 0 C15.33173774 -0.22029029 30.56966159 0.45144292 45.875 1.3125 C47.08734314 1.37936005 48.29968628 1.44622009 49.54876709 1.5151062 C71.8640787 2.75468199 93.9119305 4.50846663 116 8 C116 13.94 116 19.88 116 26 C106.77835829 25.29121089 97.6023134 24.32831124 88.41577148 23.27050781 C86.04248183 22.99769892 83.66873323 22.72916477 81.29492188 22.4609375 C79.77080424 22.28671263 78.24671463 22.11224243 76.72265625 21.9375 C76.02052505 21.85830322 75.31839386 21.77910645 74.59498596 21.69750977 C71.85279452 21.37928174 69.14947569 21.03084918 66.44482422 20.47265625 C63.3503031 19.87439453 60.30599797 19.69043809 57.16015625 19.5 C55.84982422 19.4175 54.53949219 19.335 53.18945312 19.25 C51.81382425 19.16630161 50.43817292 19.08297144 49.0625 19 C46.36563047 18.83692014 43.66913553 18.66960656 40.97265625 18.5 C39.77906494 18.4278125 38.58547363 18.355625 37.35571289 18.28125 C34 18 34 18 30.90649414 17.48413086 C28.07583459 17.01263167 25.38956516 16.82954513 22.5234375 16.75390625 C21.523125 16.72103516 20.5228125 16.68816406 19.4921875 16.65429688 C17.40636761 16.59287235 15.32042115 16.53561086 13.234375 16.48242188 C11.73777344 16.43118164 11.73777344 16.43118164 10.2109375 16.37890625 C9.30649902 16.3538501 8.40206055 16.32879395 7.47021484 16.30297852 C4.87102255 15.98418057 3.20543832 15.39509852 1 14 C-0.79477545 9.67750414 -0.06049687 4.597762 0 0 Z " fill="#4E4E4E" transform="translate(1216,957)"/>
<path d="M0 0 C0.33 0 0.66 0 1 0 C1.25413123 3.62370661 1.47405533 7.24868737 1.6875 10.875 C1.76033203 11.90753906 1.83316406 12.94007813 1.90820312 14.00390625 C1.96298828 14.99003906 2.01777344 15.97617187 2.07421875 16.9921875 C2.16062622 18.35899658 2.16062622 18.35899658 2.2487793 19.75341797 C2.16668213 20.49479004 2.08458496 21.23616211 2 22 C-1.04681061 24.03120707 -1.60118324 24.24659875 -5.01171875 24.1953125 C-5.76904297 24.18886719 -6.52636719 24.18242188 -7.30664062 24.17578125 C-8.09232422 24.15902344 -8.87800781 24.14226563 -9.6875 24.125 C-10.48478516 24.11597656 -11.28207031 24.10695313 -12.10351562 24.09765625 C-14.069139 24.07411585 -16.03460775 24.03824547 -18 24 C-18 23.67 -18 23.34 -18 23 C-15.03 23 -12.06 23 -9 23 C-9.33 20.69 -9.66 18.38 -10 16 C-7.69 15.34 -5.38 14.68 -3 14 C-2.39788242 10.83888272 -2.00046532 7.97580312 -2.0625 4.75 C-2 2 -2 2 0 0 Z " fill="#4C4C4C" transform="translate(1174,971)"/>
<path d="M0 0 C0.103125 0.639375 0.20625 1.27875 0.3125 1.9375 C0.539375 2.618125 0.76625 3.29875 1 4 C1.99 4.33 2.98 4.66 4 5 C4.84375 7.3984375 4.84375 7.3984375 5.5 10.375 C6.37644565 14.32943932 7.08847244 16.23609919 10 19 C9.6875 21.6875 9.6875 21.6875 9 24 C9.99 24.66 10.98 25.32 12 26 C11.67 27.32 11.34 28.64 11 30 C11 29.01 11 28.02 11 27 C8.03 26.67 5.06 26.34 2 26 C0.55203128 17.26047454 -0.29211698 8.86088167 0 0 Z " fill="#545454" transform="translate(1378,986)"/>
<path d="M0 0 C2.4375 0.75 2.4375 0.75 4.4375 2.75 C4.8125 5.6875 4.8125 5.6875 4.4375 8.75 C2.75 10.6875 2.75 10.6875 0.4375 11.75 C-2.1875 11.625 -2.1875 11.625 -4.5625 10.75 C-6.5625 7.75 -6.5625 7.75 -6.375 4.6875 C-5.32105756 0.87709272 -4.04091296 -0.39423541 0 0 Z " fill="#474747" transform="translate(862.5625,1207.25)"/>
<path d="M0 0 C3.65316671 1.24976756 4.78065836 1.67098753 7 5 C6.8125 7.5625 6.8125 7.5625 6 10 C3 12 3 12 0.4375 11.6875 C-2 11 -2 11 -4 10 C-4.9375 7.75 -4.9375 7.75 -5 5 C-2.5625 2.1875 -2.5625 2.1875 0 0 Z " fill="#474747" transform="translate(1784,882)"/>
<path d="M0 0 C0.99 0.33 1.98 0.66 3 1 C2.67814539 3.97715514 2.45333686 5.56095755 0.265625 7.6796875 C-2.50242391 9.29279186 -3.85495879 9.22001296 -7 8.8125 C-7.845625 8.71582031 -8.69125 8.61914062 -9.5625 8.51953125 C-11.99358365 8.00136759 -13.84214714 7.21379223 -16 6 C-12.54893157 4.70584934 -9.40422332 3.88257796 -5.75 3.5625 C-4.5125 3.376875 -3.275 3.19125 -2 3 C-1.34 2.01 -0.68 1.02 0 0 Z " fill="#4D4D4D" transform="translate(1747,1149)"/>
<path d="M0 0 C0.99 0.33 1.98 0.66 3 1 C2.67842796 3.97454134 2.37860258 5.59335278 0.3125 7.8125 C-2.60024146 9.3082321 -4.76999584 9.22022756 -8 9 C-4.25 7 -4.25 7 -2 7 C-2.33 6.01 -2.66 5.02 -3 4 C-1.5625 1.8125 -1.5625 1.8125 0 0 Z " fill="#3F3F3F" transform="translate(1747,1149)"/>
<path d="M0 0 C3.7910119 1.44950455 7.3874638 3.15172566 11 5 C10.67 5.99 10.34 6.98 10 8 C6.4134946 6.66786942 3.12317517 5.23083941 0 3 C0 2.01 0 1.02 0 0 Z " fill="#4C4C4C" transform="translate(1608,1081)"/>
</svg>
