<?xml version="1.0" encoding="UTF-8"?>
<svg version="1.1" xmlns="http://www.w3.org/2000/svg" viewBox="0 0 3568 1994">
<path d="M0 0 C-0.33 0.66 -0.66 1.32 -1 2 C-0.01 2.33 0.98 2.66 2 3 C2.98275588 5.94826763 3.13414725 7.92652504 3.125 11 C3.12757813 11.86625 3.13015625 12.7325 3.1328125 13.625 C3 16 3 16 2 19 C1.83817706 21.93978347 1.72020633 24.87048634 1.625 27.8125 C1.26991731 36.61681081 0.60593921 45.38081342 -0.24127197 54.14974976 C-0.37202229 55.50753991 -0.49958978 56.86564035 -0.6239624 58.22402954 C-0.80107218 60.14373637 -0.99204817 62.06214853 -1.18359375 63.98046875 C-1.34686157 65.64952271 -1.34686157 65.64952271 -1.51342773 67.35229492 C-2 70 -2 70 -4 72 C-4.20625 72.763125 -4.4125 73.52625 -4.625 74.3125 C-7.31457336 79.56939338 -13.30488903 81.69055412 -18.4375 84.1875 C-22.03423576 85.57314564 -22.03423576 85.57314564 -23 88 C-22.9071875 89.8253125 -22.9071875 89.8253125 -22.8125 91.6875 C-22.73971803 97.42687809 -25.33670735 101.13509612 -29.0625 105.3125 C-32.58564523 110.19944338 -33.54638935 115.8075485 -34.75 121.625 C-33.70233348 126.33949933 -31.06519757 127.97257642 -27.3984375 130.9453125 C-23.20515533 134.53760308 -19.75381024 138.73856928 -18 144 C-17.36835938 144.46148438 -16.73671875 144.92296875 -16.0859375 145.3984375 C-13.6350846 147.28017849 -12.87921938 148.82302053 -11.625 151.625 C-8.05157134 159.11062272 -4.1580332 166.47144838 3 171 C5.3333261 171.00581152 7.66667144 171.00471856 10 171 C12.99822832 171.44637025 15.92668806 172.11354674 18.875 172.8125 C19.64585937 172.97814453 20.41671875 173.14378906 21.2109375 173.31445312 C23.4296875 173.83203125 23.4296875 173.83203125 27 175 C27.92783457 177.78350372 28.19694281 179.79479227 28.359375 182.69140625 C29.14344496 194.69418474 30.78670415 205.61184779 34.39941406 217.07958984 C36.93030615 225.17227163 38.50767016 232.50122542 38 241 C38.66 241 39.32 241 40 241 C41.67433108 246.02299325 41.58164533 250.41352507 39.78125 255.32421875 C38.80869313 259.90009883 40.03108707 262.22615759 42.3125 266.0625 C46.32321971 273.08705534 47.38712372 278.99944309 47 287 C46 289.5 46 289.5 45 291 C44.34 291 43.68 291 43 291 C42.79375 291.5775 42.5875 292.155 42.375 292.75 C40.50249112 295.81410544 38.03041481 297.15539968 35 299 C35.495 299.391875 35.99 299.78375 36.5 300.1875 C38 302 38 302 38.375 304.5 C37.92703236 307.48645092 37.38148962 308.20472321 35 310 C32.73046875 310.15234375 32.73046875 310.15234375 30.1875 309.9375 C25.23531381 309.78634315 22.87391748 310.75672025 19 314 C18.14535156 314.58910156 17.29070313 315.17820312 16.41015625 315.78515625 C13.48497574 318.47328809 13.20875277 319.79308793 12.75 323.6875 C12.53923828 325.40839844 12.53923828 325.40839844 12.32421875 327.1640625 C11.91360174 332.02220592 11.68607968 336.88085087 11.46166992 341.75048828 C11.11505996 348.08706383 9.78826235 353.91443375 8 360 C7.59664807 361.58143469 7.19986426 363.16457343 6.8125 364.75 C6.544375 365.8225 6.27625 366.895 6 368 C6.54527344 367.87882812 7.09054687 367.75765625 7.65234375 367.6328125 C9.23782304 367.28048377 10.82379745 366.9303786 12.41015625 366.58203125 C14.10928074 366.20017673 15.80488785 365.80224195 17.49609375 365.38671875 C18.28113281 365.19722656 19.06617187 365.00773437 19.875 364.8125 C20.59429688 364.63332031 21.31359375 364.45414063 22.0546875 364.26953125 C24 364 24 364 27 365 C28.03735443 367.51843272 28.86890816 369.89714216 29.625 372.5 C29.8415625 373.22598389 30.058125 373.95196777 30.28125 374.69995117 C31.76216966 379.81746559 33 384.6401506 33 390 C30.64327497 393.50530943 27.24790715 393.96305806 23.3125 394.9375 C22.65258057 395.1015332 21.99266113 395.26556641 21.31274414 395.43457031 C19.91600664 395.78173723 18.51843836 396.1255764 17.12011719 396.46630859 C15.04920327 396.98761419 12.99839767 397.5572951 10.9453125 398.14453125 C2.27114784 400.5730021 -5.92496493 402.09154268 -15 401 C-15.99 400.34 -16.98 399.68 -18 399 C-22.76612341 402.51785299 -25.6303984 406.14364038 -28.703125 411.20703125 C-29.13109375 411.79871094 -29.5590625 412.39039063 -30 413 C-30.66 413 -31.32 413 -32 413 C-32 413.66 -32 414.32 -32 415 C-37.64399358 417.44064587 -42.97751478 417.19289099 -49 417 C-49.08894531 417.68707031 -49.17789063 418.37414063 -49.26953125 419.08203125 C-50.16509431 422.65949437 -51.81678853 425.55082549 -53.6875 428.6875 C-54.04618164 429.29891846 -54.40486328 429.91033691 -54.77441406 430.5402832 C-55.50143961 431.77729483 -56.23139086 433.01259191 -56.96435547 434.24609375 C-57.90045759 435.83142088 -58.81300718 437.43059768 -59.72265625 439.03125 C-60.22667969 439.9078125 -60.73070313 440.784375 -61.25 441.6875 C-61.68828125 442.45449219 -62.1265625 443.22148438 -62.578125 444.01171875 C-64.16840745 446.23549284 -65.68119817 447.56089926 -68 449 C-72.12823943 449.35897734 -75.94287318 448.77278606 -80 448 C-77.69 449.32 -75.38 450.64 -73 452 C-72.50769231 458.4 -72.50769231 458.4 -75 461.4375 C-75.66 461.953125 -76.32 462.46875 -77 463 C-76.16865601 465.15410058 -76.16865601 465.15410058 -74.0625 466 C-71.15486512 467.06678342 -71.15486512 467.06678342 -68.62109375 467.25390625 C-61.81896662 468.05475281 -61.81896662 468.05475281 -59.27734375 470.98828125 C-55.20997479 478.23365278 -53.58955854 485.72607228 -55 494 C-57.78228389 499.23457596 -61.04602939 503.69735293 -66 507 C-71.63636241 507.56363624 -74.1441004 507.10632491 -79.09082031 504.12744141 C-82.29890258 502.23294986 -85.65657482 500.63968745 -89 499 C-92.99951168 497.03855366 -96.95200936 495.05841929 -100.80078125 492.8125 C-104.08129307 490.95394385 -106.22834041 490 -110 490 C-114.5901901 493.18763201 -115.51960697 497.48416388 -116.52734375 502.76171875 C-116.87601871 504.70869936 -117.21257656 506.65790118 -117.53515625 508.609375 C-118 511 -118 511 -119 513 C-119.15067214 514.4465242 -119.24861036 515.8987934 -119.31640625 517.3515625 C-119.35830078 518.20234375 -119.40019531 519.053125 -119.44335938 519.9296875 C-119.50233398 521.26386719 -119.50233398 521.26386719 -119.5625 522.625 C-119.60568359 523.5221875 -119.64886719 524.419375 -119.69335938 525.34375 C-119.79956861 527.56234283 -119.90161194 529.7810488 -120 532 C-119.15115234 532.23783203 -119.15115234 532.23783203 -118.28515625 532.48046875 C-117.55167969 532.71378906 -116.81820312 532.94710937 -116.0625 533.1875 C-115.33160156 533.40792969 -114.60070313 533.62835937 -113.84765625 533.85546875 C-112 535 -112 535 -111.24072266 537.30004883 C-111.00733359 539.91774628 -110.95871986 542.38766637 -111.0859375 545.01171875 C-111.12976562 545.93404297 -111.17359375 546.85636719 -111.21875 547.80664062 C-111.2703125 548.75732422 -111.321875 549.70800781 -111.375 550.6875 C-111.44074219 552.13092773 -111.44074219 552.13092773 -111.5078125 553.60351562 C-111.86821209 560.73642418 -111.86821209 560.73642418 -113 563 C-122.10877855 567.18511447 -131.46077325 566.47274028 -140.6953125 563.328125 C-144.15900734 561.93609634 -147.46661834 560.34112281 -150.8125 558.6875 C-155.93968853 556.23298867 -155.93968853 556.23298867 -161.5 555.75 C-165.84731485 557.30261244 -167.19432741 559.40298386 -170 563 C-172.99036332 564.94963363 -175.85895821 566.02515683 -179.48046875 565.9453125 C-183.16227303 564.56392237 -183.98304787 562.34530298 -185.8125 558.9375 C-186.41707031 557.83277344 -187.02164063 556.72804688 -187.64453125 555.58984375 C-188.09183594 554.73519531 -188.53914063 553.88054688 -189 553 C-189.44859375 553.95261719 -189.8971875 554.90523437 -190.359375 555.88671875 C-192.23597741 559.44779522 -193.34417058 560.42134639 -197 562 C-202.03777444 563.04557583 -206.88262478 563.08977851 -212 563 C-212 562.34 -212 561.68 -212 561 C-213.03125 560.9175 -214.0625 560.835 -215.125 560.75 C-219.40203464 559.92218684 -221.70351447 558.82555903 -225 556 C-225.35613097 554.33805547 -225.69208308 552.671549 -226 551 C-227.64551962 550.28272222 -229.31422289 549.61674772 -231 549 C-232.3125 546.875 -232.3125 546.875 -233 545 C-234.27875 544.979375 -235.5575 544.95875 -236.875 544.9375 C-237.95394531 544.92009766 -237.95394531 544.92009766 -239.0546875 544.90234375 C-241.08185404 544.87350758 -241.08185404 544.87350758 -243 546 C-248.53846154 546.23076923 -248.53846154 546.23076923 -251 545 C-252.41394844 544.84729357 -253.83144348 544.72632547 -255.25 544.625 C-259.44618178 544.16025435 -262.50085523 543.52263926 -266 541 C-267.62346799 538.44088847 -268.86651801 535.80703481 -270 533 C-270.515625 533.66 -271.03125 534.32 -271.5625 535 C-272.366875 535.99 -273.17125 536.98 -274 538 C-274.7115625 538.99386719 -274.7115625 538.99386719 -275.4375 540.0078125 C-279.37793932 545.14175027 -282.81452271 547.31875997 -289.16015625 548.66796875 C-296.46586868 549.52214421 -302.47068513 548.26465744 -309 545 C-310.18926 549.99064466 -311.13369494 554.72774473 -311 559.875 C-310.88872419 567.73849073 -310.97386915 575.29617135 -316.375 581.4375 C-317.57420788 582.63421473 -318.78177237 583.8226525 -320 585 C-320.763125 585.969375 -321.52625 586.93875 -322.3125 587.9375 C-324.22044183 590.2694289 -325.14656038 590.87946663 -328.10375977 591.29711914 C-329.38464478 591.41494751 -329.38464478 591.41494751 -330.69140625 591.53515625 C-332.10969727 591.66567383 -332.10969727 591.66567383 -333.55664062 591.79882812 C-335.04454102 591.9293457 -335.04454102 591.9293457 -336.5625 592.0625 C-337.52736328 592.15337891 -338.49222656 592.24425781 -339.48632812 592.33789062 C-344.71345674 592.80730866 -349.8495178 593.08860846 -355.09765625 592.94750977 C-359.1442364 593.05916463 -362.16748455 594.16748455 -365 597 C-367.80200195 597.40087891 -367.80200195 597.40087891 -371.42578125 597.6015625 C-372.41751091 597.65771225 -372.41751091 597.65771225 -373.42927551 597.71499634 C-380.32207788 598.07527323 -387.22118306 598.18027754 -394.12158203 598.29101562 C-411.21142328 598.56557796 -427.91824942 599.51393917 -444.88378906 601.65625 C-449.54070848 602.16995593 -454.20819962 602.45620366 -458.88427734 602.73632812 C-461.66464673 602.97162032 -464.28108592 603.38803802 -467 604 C-467.12117188 604.60328125 -467.24234375 605.2065625 -467.3671875 605.828125 C-467.53476563 606.62734375 -467.70234375 607.4265625 -467.875 608.25 C-468.03742187 609.03890625 -468.19984375 609.8278125 -468.3671875 610.640625 C-469.53590233 614.99805562 -471.07010553 617.41017743 -474.6875 620.125 C-475.33074219 620.62257813 -475.97398437 621.12015625 -476.63671875 621.6328125 C-482.03388727 624.7551414 -487.4255101 625.27517739 -493.5625 625.25 C-494.82191406 625.25515625 -496.08132812 625.2603125 -497.37890625 625.265625 C-501.06380114 624.99531987 -503.71988594 624.7202376 -507 623 C-508.1015625 620.1015625 -508.1015625 620.1015625 -508.625 616.625 C-509.39160338 611.70318409 -510.06678704 609.17972389 -514 606 C-514.66 605.67 -515.32 605.34 -516 605 C-518.41665794 600.7708486 -520.04314149 596.34092978 -520.9375 591.5625 C-521.8140273 587.02049489 -523.68246505 583.30916678 -525.87890625 579.26171875 C-531.79194254 567.33263161 -527.67177276 547.92090581 -527 535 C-527.99 535 -528.98 535 -530 535 C-530.16136262 523.91976692 -530.16136262 523.91976692 -529.375 519.4375 C-528.68062682 516.74805981 -528.68062682 516.74805981 -531 514 C-530.625 510.8125 -530.625 510.8125 -530 508 C-531.65 508.66 -533.3 509.32 -535 510 C-535.33 512.64 -535.66 515.28 -536 518 C-537.98 518 -539.96 518 -542 518 C-542.33 518.66 -542.66 519.32 -543 520 C-541.68 520 -540.36 520 -539 520 C-538.375 522.875 -538.375 522.875 -538 526 C-540 528 -540 528 -542.625 528.125 C-543.40875 528.08375 -544.1925 528.0425 -545 528 C-545.495 525.525 -545.495 525.525 -546 523 C-546.7425 522.938125 -547.485 522.87625 -548.25 522.8125 C-552.90992187 521.4357049 -554.46621434 517.95318869 -556.75 513.875 C-558 511 -558 511 -558 508 C-558.7425 507.87625 -559.485 507.7525 -560.25 507.625 C-562.90321421 507.02199677 -564.72946438 506.4807841 -567 505 C-568.42467842 501.03736986 -568.44538476 497.15276056 -566.9375 493.25 C-565 491 -565 491 -562.1953125 488.83203125 C-558.59932513 485.87434935 -556.36222148 482.37042145 -553.9375 478.4375 C-550.49234279 472.86973408 -547.5205983 468.17353277 -541 466 C-541.1546875 464.39125 -541.1546875 464.39125 -541.3125 462.75 C-541 459 -541 459 -538.75 456.6875 C-536 455 -536 455 -533.8125 454.25 C-531.5053192 452.65884083 -531.53385073 451.74607827 -530.9375 449.0625 C-530.82277344 448.37285156 -530.70804688 447.68320313 -530.58984375 446.97265625 C-529.85546242 444.51661274 -529.05620572 443.52346151 -527 442 C-524.87890625 441.62890625 -524.87890625 441.62890625 -522.5625 441.5625 C-518.80003602 441.35035384 -518.80003602 441.35035384 -515.9375 438.9375 C-514 437 -514 437 -511.98828125 436.73828125 C-509.99030938 436.74874184 -507.993574 436.86709507 -506 437 C-505.79375 436.195625 -505.5875 435.39125 -505.375 434.5625 C-502.26169063 426.49619845 -496.74275755 420.37677933 -490.85546875 414.1640625 C-488.80718326 412.05060734 -488.80718326 412.05060734 -488 409 C-488.99 408.67 -489.98 408.34 -491 408 C-491.71650125 405.42059548 -492.17273236 403.60574636 -491.4296875 401 C-489.31867473 398.04688924 -486.87702588 397.46034998 -483.5 396.25 C-481.75203125 395.60804688 -481.75203125 395.60804688 -479.96875 394.953125 C-477 394 -477 394 -475 394 C-475.04125 392.948125 -475.0825 391.89625 -475.125 390.8125 C-474.87019674 383.04100058 -470.05085887 375.78431693 -465 370 C-464.34 370 -463.68 370 -463 370 C-462.88527344 369.42636719 -462.77054688 368.85273437 -462.65234375 368.26171875 C-461.94035768 365.79321615 -460.93309672 363.98023902 -459.5625 361.8125 C-459.13066406 361.11769531 -458.69882813 360.42289063 -458.25390625 359.70703125 C-457 358 -457 358 -455 357 C-445.46122094 356.26624776 -435.95076043 358.87131474 -427 362 C-426.071875 360.3603125 -426.071875 360.3603125 -425.125 358.6875 C-422.09174335 353.75188296 -418.17313694 349.81076833 -414.109375 345.7109375 C-411.76749951 342.70119381 -411.28648207 340.75732258 -411 337 C-410.01 337 -409.02 337 -408 337 C-408 336.34 -408 335.68 -408 335 C-406.4221875 334.9071875 -406.4221875 334.9071875 -404.8125 334.8125 C-400.18291382 333.82586688 -399.26788174 332.34215177 -396 329 C-390.5719744 325.53588316 -384.84632462 322.87937839 -378.875 320.5 C-374.20058119 318.61816946 -370.26236577 316.3861773 -366.1640625 313.47265625 C-363.91052411 311.93911117 -361.60508589 310.69354218 -359.1875 309.4375 C-354.50502915 306.88860717 -352.09312301 303.95851205 -349.5 299.3125 C-348 297 -348 297 -345.94140625 296.13671875 C-345.30074219 295.76160156 -344.66007812 295.38648438 -344 295 C-343.41096346 292.87504214 -343.41096346 292.87504214 -343.4375 290.5 C-343.37109375 288.09375 -343.37109375 288.09375 -343 286 C-342.01 285.34 -341.02 284.68 -340 284 C-340.66 283.67 -341.32 283.34 -342 283 C-343.53410825 279.50564232 -344.08522838 276.63855623 -343.9375 272.875 C-344.00637751 268.60459464 -344.54902195 268.16584665 -347 265 C-348.1401751 258.1589494 -345.20080587 251.97202991 -342 246 C-341.29359375 245.29488281 -340.5871875 244.58976562 -339.859375 243.86328125 C-337.62914322 242.00289748 -337.62914322 242.00289748 -337.5 238.375 C-337.335 237.26125 -337.17 236.1475 -337 235 C-335 233.6875 -335 233.6875 -333 233 C-332.67 232.34 -332.34 231.68 -332 231 C-329.8203125 230.4375 -329.8203125 230.4375 -327.125 230 C-323.61979783 229.4277221 -322.02930724 229.01953816 -319 227 C-316.84375 226.734375 -316.84375 226.734375 -314.5 226.75 C-313.7265625 226.74484375 -312.953125 226.7396875 -312.15625 226.734375 C-310 227 -310 227 -307 229 C-306.70703125 231.1640625 -306.70703125 231.1640625 -306.8125 233.625 C-306.83957031 234.44226562 -306.86664062 235.25953125 -306.89453125 236.1015625 C-306.92933594 236.72804688 -306.96414063 237.35453125 -307 238 C-305.700625 238.185625 -304.40125 238.37125 -303.0625 238.5625 C-302.33160156 238.66691406 -301.60070313 238.77132813 -300.84765625 238.87890625 C-300.23792969 238.91886719 -299.62820313 238.95882813 -299 239 C-298.67 238.67 -298.34 238.34 -298 238 C-296.02 238 -294.04 238 -292 238 C-291.67 241.96 -291.34 245.92 -291 250 C-290.34 250 -289.68 250 -289 250 C-287.5216774 252.95664519 -287.93967217 255.74229737 -288 259 C-287.13375 259.309375 -287.13375 259.309375 -286.25 259.625 C-283.18589456 261.49750888 -281.84460032 263.96958519 -280 267 C-280.0928125 265.1128125 -280.0928125 265.1128125 -280.1875 263.1875 C-280.18060372 259.29799613 -280.18060372 259.29799613 -278.75 256.9375 C-277 256 -277 256 -274.8125 256.3125 C-274.214375 256.539375 -273.61625 256.76625 -273 257 C-272.67 258.98 -272.34 260.96 -272 263 C-268.7 262.01 -265.4 261.02 -262 260 C-262 259.01 -262 258.02 -262 257 C-263.093125 256.896875 -264.18625 256.79375 -265.3125 256.6875 C-269 256 -269 256 -270.4609375 254.484375 C-272.4549607 252.56120542 -273.58501496 252.6425816 -276.3125 252.5625 C-280.83303852 252.17101546 -283.65465461 251.2595673 -287 248 C-287.375 244.25 -287.375 244.25 -287 241 C-281.375 240.75 -281.375 240.75 -278 243 C-278 243.66 -278 244.32 -278 245 C-277.31292969 244.96519531 -276.62585937 244.93039062 -275.91796875 244.89453125 C-275.01691406 244.86746094 -274.11585938 244.84039063 -273.1875 244.8125 C-272.29417969 244.77769531 -271.40085937 244.74289062 -270.48046875 244.70703125 C-268 245 -268 245 -266.625 246.4375 C-264.05928874 248.90453006 -261.27415612 248.77464193 -257.8125 249.1875 C-256.54019531 249.34605469 -255.26789062 249.50460937 -253.95703125 249.66796875 C-252.98121094 249.77753906 -252.00539063 249.88710937 -251 250 C-251.33 248.68 -251.66 247.36 -252 246 C-253.03125 245.9175 -254.0625 245.835 -255.125 245.75 C-265.02253884 244.4864844 -275.60516142 241.53296179 -284 236 C-286 233 -286 233 -286 229 C-287.65 228.67 -289.3 228.34 -291 228 C-291.05422947 226.5629191 -291.09289723 225.12524538 -291.125 223.6875 C-291.14820312 222.88699219 -291.17140625 222.08648438 -291.1953125 221.26171875 C-291 219 -291 219 -289 216 C-286.5390625 215.55859375 -286.5390625 215.55859375 -283.625 215.4375 C-279.74502673 215.34064827 -279.74502673 215.34064827 -276.1940918 214.00439453 C-273.4199576 212.73447263 -271.21391552 212.69564238 -268.16796875 212.62109375 C-267.03939453 212.58693359 -265.91082031 212.55277344 -264.74804688 212.51757812 C-262.98557617 212.47793945 -262.98557617 212.47793945 -261.1875 212.4375 C-249.30014431 213.09042061 -249.30014431 213.09042061 -239 209 C-230.55371162 206.81534982 -222.89881197 208.70785893 -215 212 C-213 214 -213 214 -212.1875 216.25 C-211.07062573 219.22024062 -211.07062573 219.22024062 -208.4375 221.9375 C-205.86947622 225.16399142 -205.28895377 226.95464729 -205 231 C-204.98582031 230.24074219 -204.97164062 229.48148438 -204.95703125 228.69921875 C-204.57059254 220.64667154 -204.57059254 220.64667154 -202.125 217.875 C-196.10198705 216.18855638 -189.97883163 215.89430253 -183.75 216.125 C-179.34846654 215.97828222 -176.89744838 214.94872419 -173 213 C-173 212.67 -173 212.34 -173 212 C-179.47155779 211.33625048 -185.93231552 210.8873851 -192.4375 210.75 C-193.57058594 210.72421875 -194.70367188 210.6984375 -195.87109375 210.671875 C-199.34480242 211.03615906 -201.11720092 212.11005305 -204 214 C-206.3125 213.6875 -206.3125 213.6875 -208 213 C-209.37432457 209.18243176 -208.67975039 205.92744671 -208 202 C-212.33245329 199.76813013 -215.28994391 199.88671401 -220 201 C-220.60972656 201.51046875 -221.21945312 202.0209375 -221.84765625 202.546875 C-224.71850792 204.48509065 -226.4349711 204.23492199 -229.875 204.0625 C-236.53486782 203.9148155 -243.05226572 204.28928317 -249.6875 204.875 C-250.65606934 204.95371338 -251.62463867 205.03242676 -252.62255859 205.11352539 C-253.99081787 205.23908813 -253.99081787 205.23908813 -255.38671875 205.3671875 C-256.20358154 205.44050293 -257.02044434 205.51381836 -257.86206055 205.58935547 C-260.2882396 205.91208516 -260.2882396 205.91208516 -263 208 C-265.05078125 208.2734375 -265.05078125 208.2734375 -267.3125 208.375 C-270.8302828 208.67426563 -271.8898691 208.92099305 -274.875 211.0625 C-279.41834461 213.87937366 -283.77543226 213.65402158 -289 213 C-291.83984375 211.9765625 -291.83984375 211.9765625 -294 211 C-294.36923077 205.58461538 -294.36923077 205.58461538 -292.5 202.625 C-291.7575 201.820625 -291.7575 201.820625 -291 201 C-291.66 201 -292.32 201 -293 201 C-293 200.34 -293 199.68 -293 199 C-293.639375 198.773125 -294.27875 198.54625 -294.9375 198.3125 C-297 197 -297 197 -297.875 194.5625 C-298 192 -298 192 -296 189 C-295.79438913 186.23566355 -295.79438913 186.23566355 -295.9375 183.125 C-296.21362888 162.5303879 -296.21362888 162.5303879 -292 157 C-289.82412657 155.1062634 -287.5950427 153.37060967 -285.2578125 151.6796875 C-283.32501541 150.24179347 -281.7477666 148.76702679 -280.0625 147.0625 C-275.75233038 144.15973271 -272.05227865 144.41640346 -267 145 C-265.65976346 145.3043927 -264.32308682 145.62807237 -263 146 C-262.71125 145.360625 -262.4225 144.72125 -262.125 144.0625 C-261 142 -261 142 -259 141 C-254.85883074 140.76647542 -250.71609577 140.7716517 -246.56884766 140.75976562 C-244.5077311 140.75003649 -242.44760219 140.71900144 -240.38671875 140.6875 C-239.09378906 140.68234375 -237.80085938 140.6771875 -236.46875 140.671875 C-235.27701172 140.6625293 -234.08527344 140.65318359 -232.85742188 140.64355469 C-231.91447266 140.76118164 -230.97152344 140.87880859 -230 141 C-227.93399864 144.09900203 -227.801356 144.8634412 -227.6875 148.375 C-227.34932909 151.95494726 -227.03191102 152.95623632 -224.8125 156 C-221.03468277 158.68644781 -218.19960305 159.3120567 -213.56323242 158.65429688 C-210.75086235 158.08832356 -207.97285292 157.43638377 -205.1875 156.75 C-204.22134766 156.53214844 -203.25519531 156.31429688 -202.25976562 156.08984375 C-201.34259766 155.86941406 -200.42542969 155.64898438 -199.48046875 155.421875 C-198.22592896 155.12168457 -198.22592896 155.12168457 -196.94604492 154.81542969 C-196.3038501 154.54633789 -195.66165527 154.27724609 -195 154 C-194.67 153.01 -194.34 152.02 -194 151 C-194.83144531 151.01160156 -195.66289062 151.02320313 -196.51953125 151.03515625 C-197.60621094 151.04417969 -198.69289063 151.05320312 -199.8125 151.0625 C-200.89144531 151.07410156 -201.97039063 151.08570313 -203.08203125 151.09765625 C-206 151 -206 151 -209 150 C-209 148.02 -209 146.04 -209 144 C-200.33561793 140.21127379 -190.98439396 140.23176857 -182 143 C-178.8274847 144.43249771 -175.77469416 145.97998664 -172.7265625 147.66015625 C-170.09954157 148.95108487 -167.88134489 149.57565648 -165 150 C-164.26919734 148.02253397 -163.60578253 146.01927511 -163 144 C-163.33 143.34 -163.66 142.68 -164 142 C-166.71671229 141.60653693 -166.71671229 141.60653693 -169.875 141.5 C-175.66883117 141.22077922 -175.66883117 141.22077922 -179 139 C-180.44693116 138.50685118 -181.9068693 138.05090822 -183.375 137.625 C-188.04339404 136.11441396 -191.37994718 134.23721579 -194.3125 130.1875 C-195.37817488 126.79671629 -195.5495812 124.54174552 -195 121 C-192.97931202 118.5483872 -190.59855758 116.80542354 -188 115 C-186.9275 114.236875 -185.855 113.47375 -184.75 112.6875 C-180.36436696 109.99631609 -177.08909347 109.73215298 -172 110 C-168.9054205 110.94556596 -168.12995393 111.81435153 -166.25 114.5 C-165 117 -165 117 -165 119 C-163.68 119.33 -162.36 119.66 -161 120 C-161 120.66 -161 121.32 -161 122 C-160.195625 122.226875 -159.39125 122.45375 -158.5625 122.6875 C-157.716875 123.120625 -156.87125 123.55375 -156 124 C-155.1875 126.625 -155.1875 126.625 -155 129 C-153.96875 129.0825 -152.9375 129.165 -151.875 129.25 C-147.66076747 130.06565791 -145.4337593 131.50272051 -142 134 C-137.82412255 135.39195915 -135.86525224 133.82323219 -132 132 C-131.85304688 130.19402344 -131.85304688 130.19402344 -131.703125 128.3515625 C-131.55306645 126.77594773 -131.40197088 125.20043147 -131.25 123.625 C-131.1571875 122.43390625 -131.1571875 122.43390625 -131.0625 121.21875 C-130.84367732 119.06699361 -130.61079513 117.07555098 -130 115 C-127.921875 113.4609375 -127.921875 113.4609375 -126 113 C-126.11361602 110.20743781 -126.2403589 107.41655882 -126.375 104.625 C-126.42140625 103.43390625 -126.42140625 103.43390625 -126.46875 102.21875 C-126.51816421 97.63332625 -126.51816421 97.63332625 -129 94 C-130.87408654 82.9356814 -131.76560451 70.37705223 -127 60 C-126.59974609 58.91912109 -126.59974609 58.91912109 -126.19140625 57.81640625 C-123.97965143 52.14448389 -120.70132391 47.92778697 -116.8203125 43.2734375 C-114.72744506 40.65959876 -113.36412141 38.05303364 -112 35 C-111.22668026 33.46975599 -110.43326501 31.94957732 -109.625 30.4375 C-109.24601562 29.71433594 -108.86703125 28.99117187 -108.4765625 28.24609375 C-104.90645667 22.81537721 -100.74688506 20.00289816 -94.75 17.75 C-94.08105713 17.49331543 -93.41211426 17.23663086 -92.72290039 16.97216797 C-87.71804411 15.12103183 -83.31144306 14.03477213 -78 14 C-76.27716797 13.96132812 -76.27716797 13.96132812 -74.51953125 13.921875 C-64.93399719 13.80267665 -64.93399719 13.80267665 -61.67724609 14.49072266 C-58.72808984 15.05172393 -55.93000429 15.19419034 -52.9296875 15.28125 C-51.21458984 15.33732422 -51.21458984 15.33732422 -49.46484375 15.39453125 C-47.06380881 15.46507308 -44.66276708 15.5353841 -42.26171875 15.60546875 C-41.12089844 15.64285156 -39.98007813 15.68023438 -38.8046875 15.71875 C-37.24210205 15.76418945 -37.24210205 15.76418945 -35.64794922 15.81054688 C-33 16 -33 16 -30 17 C-28.8125 19.0625 -28.8125 19.0625 -28 21 C-26.78763672 19.78763672 -26.78763672 19.78763672 -25.55078125 18.55078125 C-23.40494792 16.40494792 -21.25911458 14.25911458 -19.11328125 12.11328125 C-18.59145264 11.59040527 -18.06962402 11.0675293 -17.53198242 10.52880859 C-16.09390128 9.09370674 -14.64496845 7.66950245 -13.1953125 6.24609375 C-10.97078009 4.12287733 -10.97078009 4.12287733 -9.5625 1.75 C-6.98774518 -1.1337254 -3.44547585 -1.72273793 0 0 Z M-138 168 C-138 171.96 -138 175.92 -138 180 C-137.67 180 -137.34 180 -137 180 C-137 176.04 -137 172.08 -137 168 C-137.33 168 -137.66 168 -138 168 Z M-204 240 C-204 242.97 -204 245.94 -204 249 C-203.67 249 -203.34 249 -203 249 C-203 246.03 -203 243.06 -203 240 C-203.33 240 -203.66 240 -204 240 Z M-550 505 C-550 506.32 -550 507.64 -550 509 C-549.01 509 -548.02 509 -547 509 C-547.66 507.68 -548.32 506.36 -549 505 C-549.33 505 -549.66 505 -550 505 Z M-311 542 C-310 544 -310 544 -310 544 Z " fill="#F6F6F6" transform="translate(2605,1110)"/>
<path d="M0 0 C-0.33 0.66 -0.66 1.32 -1 2 C-0.01 2.33 0.98 2.66 2 3 C2.98275588 5.94826763 3.13414725 7.92652504 3.125 11 C3.12757813 11.86625 3.13015625 12.7325 3.1328125 13.625 C3 16 3 16 2 19 C1.83817706 21.93978347 1.72020633 24.87048634 1.625 27.8125 C1.26991731 36.61681081 0.60593921 45.38081342 -0.24127197 54.14974976 C-0.37202229 55.50753991 -0.49958978 56.86564035 -0.6239624 58.22402954 C-0.80107218 60.14373637 -0.99204817 62.06214853 -1.18359375 63.98046875 C-1.29243896 65.09317139 -1.40128418 66.20587402 -1.51342773 67.35229492 C-2 70 -2 70 -4 72 C-4.20625 72.763125 -4.4125 73.52625 -4.625 74.3125 C-7.31457336 79.56939338 -13.30488903 81.69055412 -18.4375 84.1875 C-22.03423576 85.57314564 -22.03423576 85.57314564 -23 88 C-22.938125 89.216875 -22.87625 90.43375 -22.8125 91.6875 C-22.73971803 97.42687809 -25.33670735 101.13509612 -29.0625 105.3125 C-32.58564523 110.19944338 -33.54638935 115.8075485 -34.75 121.625 C-33.70233348 126.33949933 -31.06519757 127.97257642 -27.3984375 130.9453125 C-23.20515533 134.53760308 -19.75381024 138.73856928 -18 144 C-17.36835938 144.46148438 -16.73671875 144.92296875 -16.0859375 145.3984375 C-13.6350846 147.28017849 -12.87921938 148.82302053 -11.625 151.625 C-8.05157134 159.11062272 -4.1580332 166.47144838 3 171 C5.3333261 171.00581152 7.66667144 171.00471856 10 171 C12.99822832 171.44637025 15.92668806 172.11354674 18.875 172.8125 C20.03128906 173.0609668 20.03128906 173.0609668 21.2109375 173.31445312 C23.4296875 173.83203125 23.4296875 173.83203125 27 175 C27.92783457 177.78350372 28.19694281 179.79479227 28.359375 182.69140625 C29.14344496 194.69418474 30.78670415 205.61184779 34.39941406 217.07958984 C36.81608681 224.80704832 39.25322664 232.82961333 38 241 C37.34 241.66 36.68 242.32 36 243 C34.68 243 33.36 243 32 243 C31.67 245.64 31.34 248.28 31 251 C27.69393428 252.10202191 27.19186949 251.96143206 24.0859375 250.8203125 C22.94318359 250.41619141 22.94318359 250.41619141 21.77734375 250.00390625 C20.19897267 249.42645342 18.62084003 248.84834835 17.04296875 248.26953125 C12.30817006 246.59609319 7.94744635 245.57792254 2.93212891 245.20654297 C1 245 1 245 -2 244 C-2.0825 243.236875 -2.165 242.47375 -2.25 241.6875 C-3.17870679 238.35963401 -4.08206033 237.75875816 -7 236 C-9.57873609 235.43015552 -9.57873609 235.43015552 -12.25 235.3125 C-13.58804688 235.21388672 -13.58804688 235.21388672 -14.953125 235.11328125 C-15.62859375 235.07589844 -16.3040625 235.03851562 -17 235 C-17.66 235.99 -18.32 236.98 -19 238 C-25.75983308 238.6541774 -25.75983308 238.6541774 -29.2734375 236.80078125 C-31 235 -31 235 -31.171875 232.51953125 C-31.03265625 231.62621094 -30.8934375 230.73289062 -30.75 229.8125 C-30.55664062 228.46091797 -30.55664062 228.46091797 -30.359375 227.08203125 C-30.18148437 226.05142578 -30.18148437 226.05142578 -30 225 C-35.55863767 221.86694967 -40.50279496 219.6410384 -47 220 C-50.47096857 221.27253856 -50.47096857 221.27253856 -53 223 C-53.17579653 237.33540821 -52.19275973 255.71086041 -44 268 C-43.01 268.33 -42.02 268.66 -41 269 C-40.08960875 271.28697319 -39.54158001 273.58315365 -38.94140625 275.96875 C-38.1927947 278.20825341 -38.1927947 278.20825341 -35.90234375 278.78125 C-35.27457031 278.8534375 -34.64679687 278.925625 -34 279 C-33.855625 278.195625 -33.71125 277.39125 -33.5625 276.5625 C-33 274 -33 274 -32 273 C-27.75870769 272.27587692 -25.35887782 273.10892346 -21.9375 275.5 C-17.18593575 279.40339635 -13.71665471 283.41672643 -12.48828125 289.55859375 C-12.16601341 294.37828831 -12.16601341 294.37828831 -13 297 C-15.57664466 299.91610737 -17.24773303 301.71803755 -21.12866211 302.3425293 C-23.5309958 302.39282792 -25.91128147 302.33493208 -28.3125 302.25 C-35.05909628 302.24976714 -35.05909628 302.24976714 -41.06640625 305.015625 C-43.38674526 307.42206095 -43.38674526 307.42206095 -45.2109375 309.96875 C-47.38329665 312.43518396 -48.78885008 312.69102338 -52 313 C-52.30744141 314.49853516 -52.30744141 314.49853516 -52.62109375 316.02734375 C-53.02521484 317.96287109 -53.02521484 317.96287109 -53.4375 319.9375 C-53.70433594 321.22527344 -53.97117187 322.51304687 -54.24609375 323.83984375 C-55 327 -55 327 -56 328 C-58.4375 328.1875 -58.4375 328.1875 -61 328 C-61.66 327.34 -62.32 326.68 -63 326 C-66.34285862 328.1817688 -67.80850037 329.33096332 -68.92578125 333.234375 C-69.05339844 334.39453125 -69.18101562 335.5546875 -69.3125 336.75 C-69.45300781 337.92046875 -69.59351562 339.0909375 -69.73828125 340.296875 C-69.86783203 341.63492188 -69.86783203 341.63492188 -70 343 C-74.31282943 344.25823831 -76.78528873 343.64963867 -80.9375 342.0625 C-85.15970304 340.45533884 -88.46464211 339.67651741 -93 340 C-93.33 340.33 -93.66 340.66 -94 341 C-98.13895558 341.28060716 -102.29016223 341.23179994 -106.4375 341.25 C-107.60861328 341.270625 -108.77972656 341.29125 -109.98632812 341.3125 C-111.10330078 341.31765625 -112.22027344 341.3228125 -113.37109375 341.328125 C-114.40161865 341.3374707 -115.43214355 341.34681641 -116.49389648 341.35644531 C-117.73441772 341.18000488 -117.73441772 341.18000488 -119 341 C-119.99 339.515 -119.99 339.515 -121 338 C-124.51988877 342.28986444 -125.57265387 345.21002561 -125.33984375 350.76953125 C-124.83294844 354.09639587 -123.36042606 356.93904137 -122 360 C-121.47348692 364.28732077 -121.65867029 366.35526611 -123.6875 370.1875 C-127.21873892 374.48225004 -130.39081249 377.37355325 -135.98046875 378.34375 C-138.4837938 378.52097655 -140.53672902 378.52349581 -143 378 C-144.83984375 376.40234375 -144.83984375 376.40234375 -146.625 374.4375 C-149.49551106 371.5202189 -150.61777477 371.02082008 -154.80078125 370.79296875 C-157.53003374 370.95387486 -160.18495285 371.28477229 -162.90234375 371.6328125 C-163.92457031 371.75398438 -164.94679688 371.87515625 -166 372 C-167.61521982 370.38478018 -167.31552931 368.47682478 -167.5 366.25 C-167.81392795 362.77187761 -168.20487855 359.40766334 -169 356 C-168.2575 355.896875 -167.515 355.79375 -166.75 355.6875 C-163.72230434 354.93057609 -162.42333423 353.92441247 -160 352 C-158.3603125 351.13375 -158.3603125 351.13375 -156.6875 350.25 C-153.7954077 348.64603446 -151.67165775 346.81421553 -149.375 344.4375 C-144.14874942 339.05008751 -140.01601176 337.60962154 -132.62109375 336.625 C-129.68685218 335.92532988 -128.30870306 334.90182272 -126 333 C-125.20207031 332.53207031 -124.40414062 332.06414062 -123.58203125 331.58203125 C-120.72263512 329.83005631 -118.25724887 327.84073386 -115.6875 325.6875 C-114.72714844 324.89730469 -113.76679688 324.10710937 -112.77734375 323.29296875 C-111.0975584 321.90614174 -109.42183713 320.51434319 -107.75390625 319.11328125 C-103.46201566 315.65801651 -100.54225572 314.23092732 -95 314 C-94.731875 313.21625 -94.46375 312.4325 -94.1875 311.625 C-93 309 -93 309 -90 307 C-90.31195312 306.45859375 -90.62390625 305.9171875 -90.9453125 305.359375 C-92.16862998 302.6227685 -92.49792032 300.22046443 -92.875 297.25 C-93.59857157 292.51807165 -94.77561111 288.99775871 -97.046875 284.828125 C-100.08781903 278.99549465 -100.08730249 273.42370225 -100 267 C-99.86540275 256.34377846 -102.77766175 248.77804646 -107 239 C-110.96 238.67 -114.92 238.34 -119 238 C-119.33 237.01 -119.66 236.02 -120 235 C-121.65 234.67 -123.3 234.34 -125 234 C-125.05607422 232.15535156 -125.05607422 232.15535156 -125.11328125 230.2734375 C-125.17897028 228.64059599 -125.24541659 227.00778482 -125.3125 225.375 C-125.33505859 224.56675781 -125.35761719 223.75851562 -125.38085938 222.92578125 C-125.60755657 217.85600763 -126.47722088 214.50447961 -129 210 C-129 209.01 -129 208.02 -129 207 C-129.99 206.67 -130.98 206.34 -132 206 C-132.9140625 204.0390625 -132.9140625 204.0390625 -133.625 201.625 C-133.86476563 200.83351563 -134.10453125 200.04203125 -134.3515625 199.2265625 C-134.56554688 198.49179688 -134.77953125 197.75703125 -135 197 C-135.64255477 193.89645793 -135.64255477 193.89645793 -137.92285156 193.03320312 C-138.60831055 192.69224609 -139.29376953 192.35128906 -140 192 C-144.16587528 186.65913426 -144.52637208 181.02663308 -144.25 174.5 C-144.23195313 173.67757813 -144.21390625 172.85515625 -144.1953125 172.0078125 C-144.1487283 170.00469196 -144.07700699 168.00218179 -144 166 C-142.35 165.67 -140.7 165.34 -139 165 C-139.48210938 164.52949219 -139.96421875 164.05898437 -140.4609375 163.57421875 C-141.09257812 162.95160156 -141.72421875 162.32898437 -142.375 161.6875 C-143.00148438 161.07261719 -143.62796875 160.45773437 -144.2734375 159.82421875 C-146 158 -146 158 -148 155 C-149.99422795 154.63371323 -151.99453311 154.29868656 -154 154 C-154.33 153.34 -154.66 152.68 -155 152 C-156.27875 152.20625 -157.5575 152.4125 -158.875 152.625 C-161.0546875 152.9765625 -161.0546875 152.9765625 -163 153 C-163.66 152.34 -164.32 151.68 -165 151 C-164.60467975 148.54901444 -163.78698574 146.36095721 -163 144 C-163.495 143.01 -163.495 143.01 -164 142 C-166.71671229 141.60653693 -166.71671229 141.60653693 -169.875 141.5 C-175.66883117 141.22077922 -175.66883117 141.22077922 -179 139 C-180.44693116 138.50685118 -181.9068693 138.05090822 -183.375 137.625 C-188.04339404 136.11441396 -191.37994718 134.23721579 -194.3125 130.1875 C-195.37817488 126.79671629 -195.5495812 124.54174552 -195 121 C-192.97931202 118.5483872 -190.59855758 116.80542354 -188 115 C-186.9275 114.236875 -185.855 113.47375 -184.75 112.6875 C-180.36436696 109.99631609 -177.08909347 109.73215298 -172 110 C-168.9054205 110.94556596 -168.12995393 111.81435153 -166.25 114.5 C-165 117 -165 117 -165 119 C-163.68 119.33 -162.36 119.66 -161 120 C-161 120.66 -161 121.32 -161 122 C-160.195625 122.226875 -159.39125 122.45375 -158.5625 122.6875 C-157.716875 123.120625 -156.87125 123.55375 -156 124 C-155.1875 126.625 -155.1875 126.625 -155 129 C-153.96875 129.0825 -152.9375 129.165 -151.875 129.25 C-147.66076747 130.06565791 -145.4337593 131.50272051 -142 134 C-137.82412255 135.39195915 -135.86525224 133.82323219 -132 132 C-131.90203125 130.79601563 -131.8040625 129.59203125 -131.703125 128.3515625 C-131.55306645 126.77594773 -131.40197088 125.20043147 -131.25 123.625 C-131.188125 122.8309375 -131.12625 122.036875 -131.0625 121.21875 C-130.84367732 119.06699361 -130.61079513 117.07555098 -130 115 C-127.921875 113.4609375 -127.921875 113.4609375 -126 113 C-126.11361602 110.20743781 -126.2403589 107.41655882 -126.375 104.625 C-126.4059375 103.8309375 -126.436875 103.036875 -126.46875 102.21875 C-126.51816421 97.63332625 -126.51816421 97.63332625 -129 94 C-130.87408654 82.9356814 -131.76560451 70.37705223 -127 60 C-126.73316406 59.27941406 -126.46632813 58.55882812 -126.19140625 57.81640625 C-123.97965143 52.14448389 -120.70132391 47.92778697 -116.8203125 43.2734375 C-114.72744506 40.65959876 -113.36412141 38.05303364 -112 35 C-111.22668026 33.46975599 -110.43326501 31.94957732 -109.625 30.4375 C-109.05652344 29.35275391 -109.05652344 29.35275391 -108.4765625 28.24609375 C-104.90645667 22.81537721 -100.74688506 20.00289816 -94.75 17.75 C-94.08105713 17.49331543 -93.41211426 17.23663086 -92.72290039 16.97216797 C-87.71804411 15.12103183 -83.31144306 14.03477213 -78 14 C-76.27716797 13.96132812 -76.27716797 13.96132812 -74.51953125 13.921875 C-64.93399719 13.80267665 -64.93399719 13.80267665 -61.67724609 14.49072266 C-58.72808984 15.05172393 -55.93000429 15.19419034 -52.9296875 15.28125 C-51.21458984 15.33732422 -51.21458984 15.33732422 -49.46484375 15.39453125 C-47.06380881 15.46507308 -44.66276708 15.5353841 -42.26171875 15.60546875 C-41.12089844 15.64285156 -39.98007813 15.68023438 -38.8046875 15.71875 C-37.24210205 15.76418945 -37.24210205 15.76418945 -35.64794922 15.81054688 C-33 16 -33 16 -30 17 C-28.8125 19.0625 -28.8125 19.0625 -28 21 C-27.19175781 20.19175781 -26.38351563 19.38351562 -25.55078125 18.55078125 C-23.40494792 16.40494792 -21.25911458 14.25911458 -19.11328125 12.11328125 C-18.59145264 11.59040527 -18.06962402 11.0675293 -17.53198242 10.52880859 C-16.09390128 9.09370674 -14.64496845 7.66950245 -13.1953125 6.24609375 C-10.97078009 4.12287733 -10.97078009 4.12287733 -9.5625 1.75 C-6.98774518 -1.1337254 -3.44547585 -1.72273793 0 0 Z M-138 168 C-138 171.96 -138 175.92 -138 180 C-137.67 180 -137.34 180 -137 180 C-137 176.04 -137 172.08 -137 168 C-137.33 168 -137.66 168 -138 168 Z " fill="#BDF0D1" transform="translate(2605,1110)"/>
<path d="M0 0 C2.0234375 0.43359375 2.0234375 0.43359375 4.0234375 3.43359375 C3.73190352 9.01759079 1.38855163 14.17880609 -0.96875 19.1640625 C-2.00255952 21.49213742 -2.78304693 23.81490685 -3.5390625 26.24609375 C-4.57455788 29.52326594 -5.86012542 31.71246037 -7.9765625 34.43359375 C-7.9765625 35.75359375 -7.9765625 37.07359375 -7.9765625 38.43359375 C-6.89375 38.58828125 -6.89375 38.58828125 -5.7890625 38.74609375 C-1.80604463 39.71972034 1.11514634 41.84320449 4.5234375 44.05859375 C8.39335048 46.18704589 12.21869872 46.60178499 16.5859375 46.74609375 C17.70162109 46.80216797 17.70162109 46.80216797 18.83984375 46.859375 C22.11339889 46.22106103 23.12348479 45.17374777 25.0234375 42.43359375 C25.57484347 39.47810284 25.58351387 36.55905303 25.5859375 33.55859375 C25.61937906 27.70154302 25.88913088 23.60478399 29.0234375 18.43359375 C34.74057864 18.62416512 38.46451131 19.49331316 43.4609375 22.30859375 C48.71103211 25.11269834 53.58381009 26.41408455 59.3984375 27.37109375 C60.15954834 27.49919434 60.92065918 27.62729492 61.70483398 27.75927734 C68.72840799 28.79413496 74.17856672 28.06216992 80.203125 24.16796875 C83.03540956 21.46939719 83.95354632 18.33470302 85.0390625 14.640625 C86.0234375 12.43359375 86.0234375 12.43359375 87.87890625 11.1484375 C91.42307983 9.96704631 94.2874556 10.19638855 98.0234375 10.43359375 C99.0134375 11.09359375 100.0034375 11.75359375 101.0234375 12.43359375 C100.68599027 16.59544289 99.47550575 19.60033853 97.5859375 23.24609375 C94.87012442 28.91117089 94.18312641 34.23022054 93.74438477 40.41918945 C93.26334206 46.48484831 91.35404071 50.43768894 88.0234375 55.43359375 C88.54292969 55.20542969 89.06242187 54.97726562 89.59765625 54.7421875 C90.29503906 54.45472656 90.99242188 54.16726563 91.7109375 53.87109375 C92.39542969 53.58105469 93.07992187 53.29101562 93.78515625 52.9921875 C96.49980145 52.3147106 98.34537295 52.72538404 101.0234375 53.43359375 C100.96285156 54.17480469 100.90226562 54.91601562 100.83984375 55.6796875 C100.10433045 64.92452389 99.54460507 74.17455288 99.0234375 83.43359375 C103.9734375 83.76359375 108.9234375 84.09359375 114.0234375 84.43359375 C114.6834375 82.45359375 115.3434375 80.47359375 116.0234375 78.43359375 C119.51815109 70.20684906 122.98914491 62.09866686 131.0234375 57.43359375 C133.72867443 56.43165415 136.15753132 55.92771551 139.0234375 55.43359375 C139.6834375 55.10359375 140.3434375 54.77359375 141.0234375 54.43359375 C142.64509502 54.3121107 144.27228077 54.25815723 145.8984375 54.24609375 C146.76210937 54.23191406 147.62578125 54.21773437 148.515625 54.203125 C151.27056296 54.45630466 152.74096695 54.87866069 155.0234375 56.43359375 C159.26247824 61.88958398 161.87310776 67.66622838 163.0234375 74.43359375 C163.29800781 75.88958984 163.29800781 75.88958984 163.578125 77.375 C164.07846559 80.05833343 164.55867546 82.74390706 165.0234375 85.43359375 C170.02432911 85.74614948 173.24702424 85.0904289 177.83203125 83.15234375 C181.14728377 82.0649882 184.45195452 82.01807091 187.921875 81.9375 C190.10737337 81.64115071 190.10737337 81.64115071 191.2109375 79.9453125 C192.40591445 76.25122511 193.02647187 72.51058634 193.6484375 68.68359375 C193.7825 67.89082031 193.9165625 67.09804687 194.0546875 66.28125 C194.38331048 64.33298517 194.70414455 62.38340936 195.0234375 60.43359375 C194.23582031 60.31371094 193.44820312 60.19382812 192.63671875 60.0703125 C190.0234375 59.43359375 190.0234375 59.43359375 188.2109375 57.24609375 C186.84987021 54.02251332 186.64659439 51.90055039 187.0234375 48.43359375 C187.6834375 47.44359375 188.3434375 46.45359375 189.0234375 45.43359375 C189.68957085 43.15821052 189.68957085 43.15821052 190.1484375 40.74609375 C190.39980469 39.53373047 190.39980469 39.53373047 190.65625 38.296875 C190.77742188 37.68199219 190.89859375 37.06710937 191.0234375 36.43359375 C192.6734375 36.43359375 194.3234375 36.43359375 196.0234375 36.43359375 C196.0234375 37.09359375 196.0234375 37.75359375 196.0234375 38.43359375 C196.6834375 38.43359375 197.3434375 38.43359375 198.0234375 38.43359375 C203.71514124 44.58063379 202.20696316 53.56152532 202.2109375 61.37109375 C202.22318359 62.63373047 202.23542969 63.89636719 202.24804688 65.19726562 C202.24998047 66.41865234 202.25191406 67.64003906 202.25390625 68.8984375 C202.25801514 70.00823975 202.26212402 71.11804199 202.26635742 72.26147461 C202.00955028 75.61493711 201.15681386 78.28074678 200.0234375 81.43359375 C199.67620966 84.8269567 199.52275343 88.19857498 199.3671875 91.60546875 C199.0234375 94.43359375 199.0234375 94.43359375 197.0234375 96.43359375 C196.81731545 99.78405064 196.81731545 99.78405064 196.9609375 103.62109375 C197.07767444 108.71183923 196.78452684 113.40326888 196.0234375 118.43359375 C196.00599286 119.99613526 196.02326424 121.5597122 196.0859375 123.12109375 C196.11003569 131.03734929 196.09091687 138.68274996 190.6484375 144.87109375 C189.44922962 146.06780848 188.24166513 147.25624625 187.0234375 148.43359375 C186.2603125 149.40296875 185.4971875 150.37234375 184.7109375 151.37109375 C182.80299567 153.70302265 181.87687712 154.31306038 178.91967773 154.73071289 C177.63879272 154.84854126 177.63879272 154.84854126 176.33203125 154.96875 C175.38650391 155.05576172 174.44097656 155.14277344 173.46679688 155.23242188 C172.47486328 155.31943359 171.48292969 155.40644531 170.4609375 155.49609375 C169.01364258 155.63241211 169.01364258 155.63241211 167.53710938 155.77148438 C162.30998076 156.24090241 157.1739197 156.52220221 151.92578125 156.38110352 C147.8792011 156.49275838 144.85595295 157.6010783 142.0234375 160.43359375 C139.22143555 160.83447266 139.22143555 160.83447266 135.59765625 161.03515625 C134.93650314 161.07258942 134.27535004 161.11002258 133.59416199 161.14859009 C126.70135962 161.50886698 119.80225444 161.61387129 112.90185547 161.72460938 C95.81201422 161.99917171 79.10518808 162.94753292 62.13964844 165.08984375 C57.48272902 165.60354968 52.81523788 165.88979741 48.13916016 166.16992188 C45.35879077 166.40521407 42.74235158 166.82163177 40.0234375 167.43359375 C39.90226562 168.036875 39.78109375 168.64015625 39.65625 169.26171875 C39.48867187 170.0609375 39.32109375 170.86015625 39.1484375 171.68359375 C38.98601563 172.4725 38.82359375 173.26140625 38.65625 174.07421875 C37.48753517 178.43164937 35.95333197 180.84377118 32.3359375 183.55859375 C31.69269531 184.05617188 31.04945313 184.55375 30.38671875 185.06640625 C24.98955023 188.18873515 19.5979274 188.70877114 13.4609375 188.68359375 C12.20152344 188.68875 10.94210938 188.69390625 9.64453125 188.69921875 C5.95963636 188.42891362 3.30355156 188.15383135 0.0234375 186.43359375 C-1.078125 183.53515625 -1.078125 183.53515625 -1.6015625 180.05859375 C-2.36816588 175.13677784 -3.04334954 172.61331764 -6.9765625 169.43359375 C-7.6365625 169.10359375 -8.2965625 168.77359375 -8.9765625 168.43359375 C-11.39322044 164.20444235 -13.01970399 159.77452353 -13.9140625 154.99609375 C-14.7905898 150.45408864 -16.65902755 146.74276053 -18.85546875 142.6953125 C-24.76850504 130.76622536 -20.64833526 111.35449956 -19.9765625 98.43359375 C-20.9665625 98.43359375 -21.9565625 98.43359375 -22.9765625 98.43359375 C-23.13792512 87.35336067 -23.13792512 87.35336067 -22.3515625 82.87109375 C-21.65718932 80.18165356 -21.65718932 80.18165356 -23.9765625 77.43359375 C-23.6015625 74.24609375 -23.6015625 74.24609375 -22.9765625 71.43359375 C-25.4515625 72.42359375 -25.4515625 72.42359375 -27.9765625 73.43359375 C-28.3065625 76.07359375 -28.6365625 78.71359375 -28.9765625 81.43359375 C-30.9565625 81.43359375 -32.9365625 81.43359375 -34.9765625 81.43359375 C-35.3065625 82.09359375 -35.6365625 82.75359375 -35.9765625 83.43359375 C-34.6565625 83.43359375 -33.3365625 83.43359375 -31.9765625 83.43359375 C-31.3515625 86.30859375 -31.3515625 86.30859375 -30.9765625 89.43359375 C-32.9765625 91.43359375 -32.9765625 91.43359375 -35.6015625 91.55859375 C-36.3853125 91.51734375 -37.1690625 91.47609375 -37.9765625 91.43359375 C-38.3065625 89.78359375 -38.6365625 88.13359375 -38.9765625 86.43359375 C-40.0903125 86.34078125 -40.0903125 86.34078125 -41.2265625 86.24609375 C-45.88648437 84.86929865 -47.44277684 81.38678244 -49.7265625 77.30859375 C-50.9765625 74.43359375 -50.9765625 74.43359375 -50.9765625 71.43359375 C-52.0903125 71.24796875 -52.0903125 71.24796875 -53.2265625 71.05859375 C-55.87977671 70.45559052 -57.70602688 69.91437785 -59.9765625 68.43359375 C-61.40124092 64.47096361 -61.42194726 60.58635431 -59.9140625 56.68359375 C-57.9765625 54.43359375 -57.9765625 54.43359375 -55.171875 52.265625 C-51.57588763 49.3079431 -49.33878398 45.8040152 -46.9140625 41.87109375 C-43.46890529 36.30332783 -40.4971608 31.60712652 -33.9765625 29.43359375 C-34.0796875 28.36109375 -34.1828125 27.28859375 -34.2890625 26.18359375 C-33.9765625 22.43359375 -33.9765625 22.43359375 -31.7265625 20.12109375 C-28.9765625 18.43359375 -28.9765625 18.43359375 -26.7890625 17.68359375 C-24.4818817 16.09243458 -24.51041323 15.17967202 -23.9140625 12.49609375 C-23.79933594 11.80644531 -23.68460938 11.11679688 -23.56640625 10.40625 C-22.83202492 7.95020649 -22.03276822 6.95705526 -19.9765625 5.43359375 C-17.85546875 5.0625 -17.85546875 5.0625 -15.5390625 4.99609375 C-11.78982375 4.79755688 -11.78982375 4.79755688 -8.9765625 2.37109375 C-6.13686526 -0.37986296 -3.82104057 -0.00634724 0 0 Z M-42.9765625 68.43359375 C-42.9765625 69.75359375 -42.9765625 71.07359375 -42.9765625 72.43359375 C-41.9865625 72.43359375 -40.9965625 72.43359375 -39.9765625 72.43359375 C-40.6365625 71.11359375 -41.2965625 69.79359375 -41.9765625 68.43359375 C-42.3065625 68.43359375 -42.6365625 68.43359375 -42.9765625 68.43359375 Z " fill="#BDF0D1" transform="translate(2097.9765625,1546.56640625)"/>
<path d="M0 0 C0.44086786 6.28236694 -0.28446487 9.90223507 -4 15 C-4.680625 15.763125 -5.36125 16.52625 -6.0625 17.3125 C-9.58564523 22.19944338 -10.54638935 27.8075485 -11.75 33.625 C-10.70218754 38.34015607 -8.06274755 39.97268929 -4.3984375 42.94921875 C0.06032167 46.7616757 3.86004467 51.14477491 5 57 C4.01 57.66 3.02 58.32 2 59 C1.93167969 59.87527344 1.86335938 60.75054688 1.79296875 61.65234375 C0.58388129 66.75671791 -2.84720549 69.17120361 -6.6875 72.5625 C-7.39583984 73.20896484 -8.10417969 73.85542969 -8.83398438 74.52148438 C-11.9067294 77.31050409 -15.01061219 80.02479443 -18.25390625 82.61328125 C-21.09505619 85.0826164 -23.08267531 87.55600205 -25.25 90.625 C-28.42075128 94.94534914 -31.65759508 99.09082295 -35.1875 103.125 C-35.96480469 104.01445313 -36.74210937 104.90390625 -37.54296875 105.8203125 C-40.27716275 108.24587729 -42.50809459 109.04182511 -46 110 C-46.33 110.33 -46.66 110.66 -47 111 C-50.26516681 111.24591214 -53.52943002 111.38423106 -56.80078125 111.5234375 C-60.16935154 112.02522697 -61.58142528 112.66204444 -64 115 C-64.309375 115.66 -64.61875 116.32 -64.9375 117 C-66.39998131 119.75290599 -68.25534196 120.62767098 -71 122 C-71.66 122 -72.32 122 -73 122 C-73.309375 122.639375 -73.61875 123.27875 -73.9375 123.9375 C-75 126 -75 126 -76 127 C-78.16796875 127.4296875 -78.16796875 127.4296875 -81 127 C-83.37600165 125.30101888 -85.31475647 123.24654052 -87.3125 121.125 C-87.86228516 120.56941406 -88.41207031 120.01382812 -88.97851562 119.44140625 C-93 115.29503106 -93 115.29503106 -93 113 C-94.65 112.34 -96.3 111.68 -98 111 C-98.2867726 105.07336634 -97.7664032 100.52488436 -95.91796875 94.91015625 C-94.60750126 90.75569549 -93.59132852 86.53544555 -92.55615234 82.30639648 C-91.71061435 78.85385006 -90.84978339 75.40905002 -89.92578125 71.9765625 C-87.74525644 63.76841537 -86.3904456 55.90835738 -85.78515625 47.42578125 C-84.81827986 43.20712158 -83.25533841 41.76968231 -80 39 C-76.3349011 35.40755724 -72.80314285 31.80766559 -69.5 27.875 C-64.60099964 22.24496841 -60.25481486 19.00096297 -52.90625 17.53125 C-50.68077346 17.01903191 -50.68077346 17.01903191 -47.9375 14.9375 C-45 13 -45 13 -41.875 12.6875 C-37.82920086 11.96969693 -35.8773897 10.8437124 -32.4375 8.6875 C-25.90687293 4.69883165 -19.41471293 2.72837131 -12 1 C-10.99710938 0.7628125 -9.99421875 0.525625 -8.9609375 0.28125 C-2.33842685 -1.16921343 -2.33842685 -1.16921343 0 0 Z " fill="#F6F6F6" transform="translate(2582,1198)"/>
<path d="M0 0 C7.84702316 -0.07620035 15.69395052 -0.12866329 23.54125977 -0.16479492 C26.20973072 -0.17816361 28.87771718 -0.20031605 31.54614258 -0.22631836 C35.38629252 -0.26279585 39.22611438 -0.27974859 43.06640625 -0.29296875 C44.84961021 -0.31619453 44.84961021 -0.31619453 46.6688385 -0.33988953 C55.59104806 -0.3416936 60.86396251 1.14311324 68.0625 6.5625 C71.61230766 9.13136845 74.67570754 10.97582547 79 12 C79.48213901 17.90620285 78.43171797 21.34602632 75 26 C74.34 26.639375 73.68 27.27875 73 27.9375 C70.79741704 30.20891368 69.60948558 32.54913022 68.26953125 35.39453125 C66.92811683 38.14752639 65.48187095 40.82611907 64.0168457 43.51464844 C59.87408946 51.13484608 56.09453602 58.24371183 55 67 C54.34 67 53.68 67 53 67 C52.81824219 68.46373047 52.81824219 68.46373047 52.6328125 69.95703125 C52.46523437 71.22933594 52.29765625 72.50164062 52.125 73.8125 C51.96257813 75.07707031 51.80015625 76.34164063 51.6328125 77.64453125 C51 81 51 81 49 84 C44.125 83.125 44.125 83.125 43 82 C41.24392543 81.82311385 39.48718318 81.65137185 37.72827148 81.50537109 C27.46098409 80.61667195 18.53833064 77.79623172 9 74 C9 73.34 9 72.68 9 72 C8.34 72 7.68 72 7 72 C5.32102754 67.57576028 4.71129641 63.79216495 4.5859375 59.0703125 C4.54726562 57.78125 4.50859375 56.4921875 4.46875 55.1640625 C4.43730242 53.81771293 4.40605489 52.47135868 4.375 51.125 C4.33676959 49.75518486 4.29771499 48.38539245 4.2578125 47.015625 C4.16377285 43.67721737 4.07811943 40.33881186 4 37 C2.35 37 0.7 37 -1 37 C-1 32.71 -1 28.42 -1 24 C-0.34 23.67 0.32 23.34 1 23 C0.83701416 22.4337793 0.67402832 21.86755859 0.50610352 21.28417969 C-0.01684172 18.92398883 -0.11396742 16.86717843 -0.09765625 14.453125 C-0.09443359 13.60878906 -0.09121094 12.76445313 -0.08789062 11.89453125 C-0.07951172 11.02183594 -0.07113281 10.14914062 -0.0625 9.25 C-0.05798828 8.36183594 -0.05347656 7.47367188 -0.04882812 6.55859375 C-0.037074 4.37232671 -0.02064249 2.18619821 0 0 Z " fill="#F6F6F6" transform="translate(2086,1623)"/>
<path d="M0 0 C4.84665414 2.05010316 7.29723214 5.60484478 10 10 C10.75 12.9375 10.75 12.9375 11 15 C11.99 15.495 11.99 15.495 13 16 C12.61004218 21.45176322 12.61004218 21.45176322 9.91796875 23.87109375 C9.01691406 24.38800781 8.11585938 24.90492187 7.1875 25.4375 C6.18976562 26.02273438 5.19203125 26.60796875 4.1640625 27.2109375 C3.11992187 27.80132813 2.07578125 28.39171875 1 29 C0.01773438 29.59039063 -0.96453125 30.18078125 -1.9765625 30.7890625 C-7.70639545 34.22091495 -13.53953849 37.31697155 -19.5234375 40.27734375 C-20.67070312 40.84582031 -21.81796875 41.41429687 -23 42 C-23.73766602 42.36496582 -24.47533203 42.72993164 -25.23535156 43.10595703 C-38.28289499 49.49587836 -38.28289499 49.49587836 -49.50390625 58.6015625 C-51 60 -51 60 -53 60 C-53.22300781 60.57234375 -53.44601563 61.1446875 -53.67578125 61.734375 C-55.39084795 64.66870741 -57.49459148 66.18481774 -60.1875 68.25 C-64.45902413 71.63930085 -68.02240414 75.1026178 -71.515625 79.26953125 C-74.31164129 82.52909761 -76.44529464 84.86180397 -80.8125 85.25 C-81.534375 85.1675 -82.25625 85.085 -83 85 C-83.69040574 83.34302621 -84.3530635 81.6744239 -85 80 C-85.433125 79.0409375 -85.433125 79.0409375 -85.875 78.0625 C-86.08197327 74.64744101 -83.95979677 72.70169639 -82 70 C-79.43904012 67.19907306 -76.80258938 64.48990074 -74.14453125 61.78125 C-71.79250385 58.73089753 -71.28461744 56.79489916 -71 53 C-70.01 53 -69.02 53 -68 53 C-68 52.34 -68 51.68 -68 51 C-66.4221875 50.9071875 -66.4221875 50.9071875 -64.8125 50.8125 C-60.18291382 49.82586688 -59.26788174 48.34215177 -56 45 C-50.5719744 41.53588316 -44.84632462 38.87937839 -38.875 36.5 C-34.20058119 34.61816946 -30.26236577 32.3861773 -26.1640625 29.47265625 C-23.91052411 27.93911117 -21.60508589 26.69354218 -19.1875 25.4375 C-14.50502915 22.88860717 -12.09312301 19.95851205 -9.5 15.3125 C-8 13 -8 13 -5.94140625 12.13671875 C-5.30074219 11.76160156 -4.66007812 11.38648438 -4 11 C-3.41096346 8.87504214 -3.41096346 8.87504214 -3.4375 6.5 C-3.37109375 4.09375 -3.37109375 4.09375 -3 2 C-2.01 1.34 -1.02 0.68 0 0 Z " fill="#BDF0D1" transform="translate(2265,1394)"/>
<path d="M0 0 C6.88807869 2.90024366 11.16627306 7.85117633 14.0625 14.6875 C15.33914459 18.09371983 15.71743736 20.86542774 15.5625 24.5 C13.375 25.3125 13.375 25.3125 10.5625 25.5 C7.75 23.0625 7.75 23.0625 5.5625 20.5 C5.8438398 25.98612608 8.16351613 29.12345436 11.3828125 33.3515625 C12.5625 35.5 12.5625 35.5 12.2421875 37.7734375 C12.01789062 38.34320312 11.79359375 38.91296875 11.5625 39.5 C9.56295254 39.54254356 7.56208364 39.54080783 5.5625 39.5 C5.0675 39.005 5.0675 39.005 4.5625 38.5 C3.06484521 38.36628082 1.56392407 38.26859544 0.0625 38.1875 C-8.38494047 37.40421379 -14.87262013 33.69719657 -21.4375 28.5 C-23.30867915 24.7576417 -23.11074096 20.56509303 -22.4375 16.5 C-19.66540139 13.39788966 -17.27459012 11.87401899 -13.5 10.1875 C-10.33666014 8.44443518 -9.1746457 7.05082716 -7 4.25 C-3.88876094 0.56563795 -3.88876094 0.56563795 0 0 Z " fill="#BEF0D1" transform="translate(2316.4375,1462.5)"/>
<path d="M0 0 C1.32 0 2.64 0 4 0 C4.02917237 4.52081966 4.0468568 9.04161488 4.0625 13.5625 C4.07087891 14.83931641 4.07925781 16.11613281 4.08789062 17.43164062 C4.09272461 19.29272461 4.09272461 19.29272461 4.09765625 21.19140625 C4.10551147 22.89598999 4.10551147 22.89598999 4.11352539 24.63500977 C3.99367951 28.18734489 3.72893923 31.51835957 3 35 C0.25 36.6875 0.25 36.6875 -3 38 C-3.845625 38.721875 -4.69125 39.44375 -5.5625 40.1875 C-8.4916758 42.36560508 -9.42782188 42.4529563 -13 42 C-15.89453125 40.42578125 -15.89453125 40.42578125 -18.8125 38.3125 C-19.78832031 37.62800781 -20.76414062 36.94351562 -21.76953125 36.23828125 C-24 34 -24 34 -24.32421875 31.23046875 C-24.21722656 30.49441406 -24.11023437 29.75835938 -24 29 C-23.01 29 -22.02 29 -21 29 C-21 25.7 -21 22.4 -21 19 C-22.32 18.67 -23.64 18.34 -25 18 C-26.32229189 15.35541621 -26.09677194 13.32238699 -26.0625 10.375 C-26.05347656 9.37210938 -26.04445313 8.36921875 -26.03515625 7.3359375 C-26.02355469 6.56507812 -26.01195313 5.79421875 -26 5 C-24.35 5 -22.7 5 -21 5 C-20.67 5.99 -20.34 6.98 -20 8 C-11.03055423 7.73938023 -11.03055423 7.73938023 -3.03125 4.53125 C-1.95421716 3.06758999 -0.96912684 1.53723567 0 0 Z " fill="#BEF0D1" transform="translate(2489,1524)"/>
<path d="M0 0 C2.35251125 1.76438344 3.4443571 3.70121419 4.75 6.3125 C4.75 6.9725 4.75 7.6325 4.75 8.3125 C6.07 8.6425 7.39 8.9725 8.75 9.3125 C8.75 9.9725 8.75 10.6325 8.75 11.3125 C9.554375 11.621875 10.35875 11.93125 11.1875 12.25 C13.75 13.3125 13.75 13.3125 14.75 14.3125 C14.89531745 17.42734801 14.62380683 20.31734285 13.75 23.3125 C10.8125 25.6875 10.8125 25.6875 7.75 27.3125 C7.09 28.3025 6.43 29.2925 5.75 30.3125 C3.03515625 30.67578125 3.03515625 30.67578125 -0.1875 30.625 C-1.24839844 30.62113281 -2.30929688 30.61726563 -3.40234375 30.61328125 C-6.25 30.3125 -6.25 30.3125 -9.25 28.3125 C-10.69693116 27.81935118 -12.1568693 27.36340822 -13.625 26.9375 C-18.29339404 25.42691396 -21.62994718 23.54971579 -24.5625 19.5 C-25.62817488 16.10921629 -25.7995812 13.85424552 -25.25 10.3125 C-23.22931202 7.8608872 -20.84855758 6.11792354 -18.25 4.3125 C-17.1775 3.549375 -16.105 2.78625 -15 2 C-10.19493703 -0.94856137 -5.46830717 -1.67087163 0 0 Z " fill="#F6F7F6" transform="translate(2435.25,1220.6875)"/>
<path d="M0 0 C0.495 0.495 0.495 0.495 1 1 C0.94921875 2.92578125 0.94921875 2.92578125 0.6875 5.3125 C0.60886719 6.09238281 0.53023437 6.87226562 0.44921875 7.67578125 C-0.40581233 12.09963773 -2.10964181 14.43984906 -5.6875 17.125 C-6.33074219 17.62257813 -6.97398437 18.12015625 -7.63671875 18.6328125 C-13.03388727 21.7551414 -18.4255101 22.27517739 -24.5625 22.25 C-25.82191406 22.25515625 -27.08132812 22.2603125 -28.37890625 22.265625 C-32.06939574 21.99490948 -34.71587318 21.72440877 -38 20 C-39.20703125 17.03125 -39.20703125 17.03125 -39.8125 13.5 C-40.49655271 9.11409045 -40.49655271 9.11409045 -42 5 C-41.67 4.01 -41.34 3.02 -41 2 C-8.4916711 -0.64512696 -8.4916711 -0.64512696 0 0 Z " fill="#F6F7F6" transform="translate(2136,1713)"/>
<path d="M0 0 C2.12890625 0.6953125 2.12890625 0.6953125 5.12890625 2.6953125 C6.78440156 3.08031141 8.45114955 3.42324385 10.12890625 3.6953125 C10.28090625 12.8153125 10.28090625 12.8153125 9.12890625 15.6953125 C8.13890625 16.1903125 8.13890625 16.1903125 7.12890625 16.6953125 C6.77570312 17.530625 6.4225 18.3659375 6.05859375 19.2265625 C4.12890625 21.6953125 4.12890625 21.6953125 2.28222656 22.15234375 C-0.07816235 22.29849786 -2.3827501 22.27797317 -4.74609375 22.1953125 C-5.54917969 22.19789062 -6.35226563 22.20046875 -7.1796875 22.203125 C-12.03052219 22.1232101 -14.77007515 21.43405502 -18.87109375 18.6953125 C-21.49390041 18.16678505 -21.49390041 18.16678505 -24.12109375 18.0703125 C-28.78592025 17.780486 -28.78592025 17.780486 -29.87109375 16.6953125 C-29.91202312 14.36233817 -29.91351098 12.02826025 -29.87109375 9.6953125 C-27.49428316 8.50690721 -26.01725302 8.66212123 -23.37109375 8.6328125 C-18.56773881 8.25323704 -16.40628212 6.78666268 -12.87109375 3.5703125 C-8.40042801 -0.38477883 -5.82607807 -1.02868152 0 0 Z " fill="#BFF0D2" transform="translate(2600.87109375,1468.3046875)"/>
<path d="M0 0 C4.09789669 0.37943488 6.53958935 0.69305957 10 3 C11.1875 5.125 11.1875 5.125 12 7 C15.51598741 7.13106363 15.51598741 7.13106363 18.875 6.25 C22.51451371 5.82182192 24.98388441 8.08592664 28 10 C28.41483259 14.23129241 28.40089043 16.37926643 26.0625 20 C22.20742212 22.51760188 20.27061307 22.13806476 15.890625 21.296875 C15.26671875 21.19890625 14.6428125 21.1009375 14 21 C13.67 21.33 13.34 21.66 13 22 C10.15213242 21.93527574 7.34046224 21.80855168 4.5 21.625 C3.70207031 21.58117188 2.90414062 21.53734375 2.08203125 21.4921875 C-3.8717083 21.1282917 -3.8717083 21.1282917 -5 20 C-6.07416585 7.69111594 -6.07416585 7.69111594 -3.0625 3.25 C-1 1 -1 1 0 0 Z " fill="#BEF0D1" transform="translate(2504,1552)"/>
<path d="M0 0 C1.65 0 3.3 0 5 0 C5 0.66 5 1.32 5 2 C8.96 2 12.92 2 17 2 C18.05882353 7.29411765 18.05882353 7.29411765 17 11 C17.33 11.33 17.66 11.66 18 12 C18.08669432 13.4887186 18.10703494 14.981445 18.09765625 16.47265625 C18.09443359 17.37177734 18.09121094 18.27089844 18.08789062 19.19726562 C18.07951172 20.14279297 18.07113281 21.08832031 18.0625 22.0625 C18.05798828 23.01189453 18.05347656 23.96128906 18.04882812 24.93945312 C18.0370011 27.29303065 18.02052025 29.64648477 18 32 C16.515 32.495 16.515 32.495 15 33 C14.32741333 35.33163378 13.66152556 37.6652039 13 40 C10.875 42.9375 10.875 42.9375 9 45 C6.70475398 39.83569646 6.86907589 35.14186886 7.02734375 29.609375 C7.19059691 27.01634648 7.19059691 27.01634648 6 25 C5.97419254 23.27090042 5.95419584 21.54171157 5.9375 19.8125 C5.67638486 16.26879448 5.40897995 14.50602604 3.15625 11.71875 C1.16963321 10.01193839 -0.82239386 8.45339088 -3 7 C-2.67 5.35 -2.34 3.7 -2 2 C-1.34 2 -0.68 2 0 2 C0 1.34 0 0.68 0 0 Z " fill="#BEF0D2" transform="translate(2398,1615)"/>
<path d="M0 0 C4.06353744 0.05194164 8.12496032 0.14703756 12.1875 0.25 C13.91323242 0.27126953 13.91323242 0.27126953 15.67382812 0.29296875 C17.34155273 0.34130859 17.34155273 0.34130859 19.04296875 0.390625 C20.57473755 0.4220459 20.57473755 0.4220459 22.13745117 0.45410156 C25.70844202 1.13510246 27.4303927 2.46969223 30 5 C30.64247553 8.76307099 30.1610211 9.75846834 28 13 C25.87695312 13.60009766 25.87695312 13.60009766 23.28125 13.9140625 C22.34925781 14.03523438 21.41726562 14.15640625 20.45703125 14.28125 C19.48121094 14.3946875 18.50539063 14.508125 17.5 14.625 C15.57256076 14.86433856 13.64545632 15.10639378 11.71875 15.3515625 C10.43387695 15.50359131 10.43387695 15.50359131 9.12304688 15.65869141 C6.95259536 15.8988791 6.95259536 15.8988791 5 17 C1.5625 17.3125 1.5625 17.3125 -2 17 C-4.33130719 14.74640305 -4.97071908 13.08784275 -6 10 C-6.03954234 7.66700175 -6.04401732 5.33291811 -6 3 C-4.35 3 -2.7 3 -1 3 C-0.67 2.01 -0.34 1.02 0 0 Z " fill="#BEF0D1" transform="translate(2293,1424)"/>
<path d="M0 0 C1.65 0.33 3.3 0.66 5 1 C5.10957031 1.63808594 5.21914062 2.27617188 5.33203125 2.93359375 C5.49058594 3.75988281 5.64914063 4.58617187 5.8125 5.4375 C5.96332031 6.26121094 6.11414062 7.08492187 6.26953125 7.93359375 C6.51058594 8.61550781 6.75164063 9.29742188 7 10 C7.99 10.33 8.98 10.66 10 11 C10.62881434 17.79119487 9.31226057 23.53780328 5 29 C2.484375 29.76953125 2.484375 29.76953125 0 30 C-1.2684375 30.12375 -1.2684375 30.12375 -2.5625 30.25 C-5 30 -5 30 -7.375 29.0625 C-9.31245681 26.6034202 -9.2229387 25.9165209 -9 22.875 C-8.01254522 16.64487294 -5.47838858 11.21758287 -2 6 C-1.29835358 4.01200182 -0.62627128 2.01301483 0 0 Z " fill="#BEF0D2" transform="translate(2281,1545)"/>
<path d="M0 0 C3.70740227 0.25277743 5.48899115 0.47396148 8.125 3.1875 C9.36293612 5.04440418 10.57215708 6.92081531 11.75 8.81640625 C14.17401984 12.24622599 16.82846871 14.89325106 19.875 17.75 C25.68607841 23.36528855 30.40826906 29.22480718 33 37 C33.99 37.66 34.98 38.32 36 39 C36.1875 41.625 36.1875 41.625 36 44 C31.6433393 44.34853286 31.6433393 44.34853286 29 43 C27.25633711 40.19637362 26.00300352 37.28857723 24.66015625 34.2734375 C21.25079405 27.55097745 15.61876947 22.55662283 10.25 17.375 C7.25317252 14.45448063 5.17490579 11.34516567 3.140625 7.69921875 C1.94888573 5.69026496 1.94888573 5.69026496 -1 4 C-0.67 2.68 -0.34 1.36 0 0 Z " fill="#C1F0D3" transform="translate(2325,1568)"/>
<path d="M0 0 C0.7734375 -0.00515625 1.546875 -0.0103125 2.34375 -0.015625 C4.5 0.25 4.5 0.25 7.5 2.25 C7.8984375 4.34375 7.8984375 4.34375 7.875 6.75 C7.88273437 7.5440625 7.89046875 8.338125 7.8984375 9.15625 C7.76695312 9.8471875 7.63546875 10.538125 7.5 11.25 C4.1678287 13.47144753 3.18657426 13.48080566 -0.68359375 13.41015625 C-1.69357422 13.39919922 -2.70355469 13.38824219 -3.74414062 13.37695312 C-4.79794922 13.35568359 -5.85175781 13.33441406 -6.9375 13.3125 C-9.01946067 13.27799236 -11.10149978 13.24786963 -13.18359375 13.22265625 C-14.10712646 13.20468994 -15.03065918 13.18672363 -15.98217773 13.16821289 C-18.32239158 13.2442307 -20.26484954 13.58217068 -22.5 14.25 C-22.5 12.27 -22.5 10.29 -22.5 8.25 C-21.860625 7.96125 -21.22125 7.6725 -20.5625 7.375 C-18.34793921 6.42176549 -18.34793921 6.42176549 -17.5 4.25 C-15.3203125 3.6875 -15.3203125 3.6875 -12.625 3.25 C-7.93619104 2.48448017 -4.74890217 -0.03165935 0 0 Z " fill="#BCF0D1" transform="translate(2290.5,1336.75)"/>
<path d="M0 0 C0 1.32 0 2.64 0 4 C5.445 5.485 5.445 5.485 11 7 C11 8.65 11 10.3 11 12 C7.71646451 13.64176774 4.10480362 13.18454039 0.5 13.1875 C-0.28503906 13.19974609 -1.07007812 13.21199219 -1.87890625 13.22460938 C-3.92063726 13.22986254 -5.96192251 13.1222018 -8 13 C-8.66 12.34 -9.32 11.68 -10 11 C-9.77411765 3.88470588 -9.77411765 3.88470588 -7.25 1 C-4.65550914 -0.15310705 -2.80997777 -0.23416481 0 0 Z " fill="#95DBEE" transform="translate(2388,1282)"/>
<path d="M0 0 C5.625 -0.25 5.625 -0.25 9 2 C9 2.66 9 3.32 9 4 C12.3 4 15.6 4 19 4 C19.33 4.99 19.66 5.98 20 7 C18.625 9 18.625 9 16 11 C10.99602845 11.89111822 7.03298933 11.44525402 2.375 9.4375 C0 7 0 7 -0.375 3.25 C-0.25125 2.1775 -0.1275 1.105 0 0 Z " fill="#BCF0CF" transform="translate(2318,1351)"/>
<path d="M0 0 C2.25 0.125 2.25 0.125 5 1 C7.42164869 4.02706087 9.71648095 7.03073331 10 11 C7.41073669 13.58926331 5.97294721 13.37398043 2.375 13.625 C1.37210938 13.69976563 0.36921875 13.77453125 -0.6640625 13.8515625 C-1.82035156 13.92503906 -1.82035156 13.92503906 -3 14 C-3.33 12.35 -3.66 10.7 -4 9 C-3.01 8.67 -2.02 8.34 -1 8 C-1.020625 7.05125 -1.04125 6.1025 -1.0625 5.125 C-1 2 -1 2 0 0 Z " fill="#BFF0D2" transform="translate(2385,1606)"/>
<path d="M0 0 C0.598125 0.226875 1.19625 0.45375 1.8125 0.6875 C2.1425 2.9975 2.4725 5.3075 2.8125 7.6875 C-0.8125 10.6875 -0.8125 10.6875 -4.1875 10.6875 C-5.5245565 3.27291393 -5.5245565 3.27291393 -4 0.625 C-2.1875 -0.3125 -2.1875 -0.3125 0 0 Z " fill="#BCF0D0" transform="translate(2330.1875,1366.3125)"/>
<path d="M0 0 C1.67542976 0.28604898 3.34385343 0.61781233 5 1 C5 2.98 5 4.96 5 7 C3.34385343 7.38218767 1.67542976 7.71395102 0 8 C-1 7 -1 7 -1.125 4 C-1 1 -1 1 0 0 Z " fill="#94DBEE" transform="translate(2360,1263)"/>
<path d="M0 0 C0 0.99 0 1.98 0 3 C-3.3 3.33 -6.6 3.66 -10 4 C-9.67 3.01 -9.34 2.02 -9 1 C-5.8035914 -0.06546953 -3.34252724 -0.07427838 0 0 Z " fill="#CAF1D9" transform="translate(2398,1389)"/>
<path d="M0 0 C1.65 0 3.3 0 5 0 C4.67 1.65 4.34 3.3 4 5 C2.35 4.67 0.7 4.34 -1 4 C-0.67 2.68 -0.34 1.36 0 0 Z " fill="#94DBEE" transform="translate(2416,1286)"/>
<path d="M0 0 C1.65 0.33 3.3 0.66 5 1 C4.67 2.32 4.34 3.64 4 5 C2.35 4.67 0.7 4.34 -1 4 C-0.67 2.68 -0.34 1.36 0 0 Z " fill="#C5F1D6" transform="translate(2519,1264)"/>
<path d="M0 0 C0.33 1.32 0.66 2.64 1 4 C0.01 4 -0.98 4 -2 4 C-1.34 2.68 -0.68 1.36 0 0 Z " fill="#D1F6DF" transform="translate(2104,1773)"/>
<path d="" fill="#FFFFFF" transform="translate(0,0)"/>
<path d="" fill="#BCE3C8" transform="translate(0,0)"/>
<path d="" fill="#CCFFCC" transform="translate(0,0)"/>
</svg>
