<?xml version="1.0" encoding="UTF-8"?>
<svg version="1.1" xmlns="http://www.w3.org/2000/svg" viewBox="0 0 2000 2000">
<path d="M0 0 C1.82730061 0.17881917 3.65461212 0.35752697 5.48193359 0.53613281 C91.01399065 9.0159276 175.5375828 27.64636766 336.6640625 91.41796875 C339.94872298 92.97568244 343.23953669 94.51975726 346.53125 96.0625 C359.38324507 102.11968407 371.91562765 108.60606299 384.32470703 115.52197266 C386.96350792 116.97983911 389.61658148 118.40688621 392.27734375 119.82421875 C407.54123437 127.97746224 422.27858117 136.91807122 437 146 C438.53241494 146.93902593 440.06494615 147.87786217 441.59765625 148.81640625 C470.61913567 166.67632928 498.67543926 186.44242859 525.32617188 207.67333984 C527.04837327 209.03834019 528.78034824 210.38995016 530.515625 211.73828125 C537.95846973 217.52727427 545.22090912 223.48754082 552.38232422 229.62060547 C554.02013627 231.01717023 555.66666774 232.40270733 557.31640625 233.78515625 C563.51270079 238.98216609 569.57739513 244.27945895 575.53515625 249.75 C577.58115954 251.61766703 579.65017157 253.44369597 581.75 255.25 C594.94688678 266.77206593 607.32394962 279.16539182 619.69140625 291.56103516 C622.04940814 293.92354643 624.41068303 296.28267512 626.77390289 298.63995934 C629.07046239 300.9320102 631.36318146 303.22789495 633.65625 305.5234375 C634.49176392 306.35692719 635.32727783 307.19041687 636.18811035 308.04916382 C640.45239655 312.33042343 644.57317735 316.67741624 648.5050354 321.266922 C650.88224659 324.02276813 653.38538989 326.65862004 655.875 329.3125 C660.40901694 334.1810575 664.68492781 339.19332164 668.8515625 344.3828125 C671.01511772 347.01841613 673.2638956 349.54423375 675.5625 352.0625 C679.13765575 355.99517133 682.50891266 360.03235465 685.796875 364.20703125 C687.39843157 366.23737335 689.01117784 368.2540487 690.640625 370.26171875 C703.69782764 386.38177697 715.95867708 403.1125144 728 420 C728.82467773 421.15072998 728.82467773 421.15072998 729.66601562 422.32470703 C781.07218055 494.17178932 822.20406704 574.36467136 906.74285889 904.29083252 C906.98793684 906.87290585 907.2433571 909.45377162 907.50048828 912.03466797 C913.09421034 969.4158428 912.78945739 1029.65240724 907 1087 C906.82118083 1088.82730061 906.64247303 1090.65461212 906.46386719 1092.48193359 C897.9840724 1178.01399065 879.35363234 1262.5375828 815.58203125 1423.6640625 C814.02431756 1426.94872298 812.48024274 1430.23953669 810.9375 1433.53125 C804.88031593 1446.38324507 798.39393701 1458.91562765 791.47802734 1471.32470703 C790.02016089 1473.96350792 788.59311379 1476.61658148 787.17578125 1479.27734375 C779.02253776 1494.54123437 770.08192878 1509.27858117 761 1524 C760.06097407 1525.53241494 759.12213783 1527.06494615 758.18359375 1528.59765625 C740.32367072 1557.61913567 720.55757141 1585.67543926 699.32666016 1612.32617188 C697.96165981 1614.04837327 696.61004984 1615.78034824 695.26171875 1617.515625 C689.47272573 1624.95846973 683.51245918 1632.22090912 677.37939453 1639.38232422 C675.98282977 1641.02013627 674.59729267 1642.66666774 673.21484375 1644.31640625 C668.01783391 1650.51270079 662.72054105 1656.57739513 657.25 1662.53515625 C655.38233297 1664.58115954 653.55630403 1666.65017157 651.75 1668.75 C640.22793407 1681.94688678 627.83460818 1694.32394962 615.43896484 1706.69140625 C613.07645357 1709.04940814 610.71732488 1711.41068303 608.36004066 1713.77390289 C606.0679898 1716.07046239 603.77210505 1718.36318146 601.4765625 1720.65625 C600.64307281 1721.49176392 599.80958313 1722.32727783 598.95083618 1723.18811035 C594.66957657 1727.45239655 590.32258376 1731.57317735 585.733078 1735.5050354 C582.97723187 1737.88224659 580.34137996 1740.38538989 577.6875 1742.875 C572.8189425 1747.40901694 567.80667836 1751.68492781 562.6171875 1755.8515625 C559.98158387 1758.01511772 557.45576625 1760.2638956 554.9375 1762.5625 C551.00482867 1766.13765575 546.96764535 1769.50891266 542.79296875 1772.796875 C540.76262665 1774.39843157 538.7459513 1776.01117784 536.73828125 1777.640625 C520.61822303 1790.69782764 503.8874856 1802.95867708 487 1815 C486.23284668 1815.54978516 485.46569336 1816.09957031 484.67529297 1816.66601562 C412.82821068 1868.07218055 332.63532864 1909.20406704 2.70916748 1993.74285889 C0.12709415 1993.98793684 -2.45377162 1994.2433571 -5.03466797 1994.50048828 C-62.4158428 2000.09421034 -122.65240724 1999.78945739 -180 1994 C-181.82730061 1993.82118083 -183.65461212 1993.64247303 -185.48193359 1993.46386719 C-271.01399065 1984.9840724 -355.5375828 1966.35363234 -516.6640625 1902.58203125 C-519.94872298 1901.02431756 -523.23953669 1899.48024274 -526.53125 1897.9375 C-539.38324507 1891.88031593 -551.91562765 1885.39393701 -564.32470703 1878.47802734 C-566.96350792 1877.02016089 -569.61658148 1875.59311379 -572.27734375 1874.17578125 C-587.54123437 1866.02253776 -602.27858117 1857.08192878 -617 1848 C-618.53241494 1847.06097407 -620.06494615 1846.12213783 -621.59765625 1845.18359375 C-650.61913567 1827.32367072 -678.67543926 1807.55757141 -705.32617188 1786.32666016 C-707.04837327 1784.96165981 -708.78034824 1783.61004984 -710.515625 1782.26171875 C-717.95846973 1776.47272573 -725.22090912 1770.51245918 -732.38232422 1764.37939453 C-734.02013627 1762.98282977 -735.66666774 1761.59729267 -737.31640625 1760.21484375 C-743.51270079 1755.01783391 -749.57739513 1749.72054105 -755.53515625 1744.25 C-757.58115954 1742.38233297 -759.65017157 1740.55630403 -761.75 1738.75 C-774.94688678 1727.22793407 -787.32394962 1714.83460818 -799.69140625 1702.43896484 C-802.04940814 1700.07645357 -804.41068303 1697.71732488 -806.77390289 1695.36004066 C-809.07046239 1693.0679898 -811.36318146 1690.77210505 -813.65625 1688.4765625 C-814.90952087 1687.22632797 -814.90952087 1687.22632797 -816.18811035 1685.95083618 C-820.45239655 1681.66957657 -824.57317735 1677.32258376 -828.5050354 1672.733078 C-830.88224659 1669.97723187 -833.38538989 1667.34137996 -835.875 1664.6875 C-840.40901694 1659.8189425 -844.68492781 1654.80667836 -848.8515625 1649.6171875 C-851.01511772 1646.98158387 -853.2638956 1644.45576625 -855.5625 1641.9375 C-859.13765575 1638.00482867 -862.50891266 1633.96764535 -865.796875 1629.79296875 C-867.39843157 1627.76262665 -869.01117784 1625.7459513 -870.640625 1623.73828125 C-883.69782764 1607.61822303 -895.95867708 1590.8874856 -908 1574 C-908.54978516 1573.23284668 -909.09957031 1572.46569336 -909.66601562 1571.67529297 C-961.07218055 1499.82821068 -1002.20406704 1419.63532864 -1086.74285889 1089.70916748 C-1086.98793684 1087.12709415 -1087.2433571 1084.54622838 -1087.50048828 1081.96533203 C-1093.09421034 1024.5841572 -1092.78945739 964.34759276 -1087 907 C-1086.82118083 905.17269939 -1086.64247303 903.34538788 -1086.46386719 901.51806641 C-1077.9840724 815.98600935 -1059.35363234 731.4624172 -995.58203125 570.3359375 C-994.02431756 567.05127702 -992.48024274 563.76046331 -990.9375 560.46875 C-984.88031593 547.61675493 -978.39393701 535.08437235 -971.47802734 522.67529297 C-970.02016089 520.03649208 -968.59311379 517.38341852 -967.17578125 514.72265625 C-959.02253776 499.45876563 -950.08192878 484.72141883 -941 470 C-940.06097407 468.46758506 -939.12213783 466.93505385 -938.18359375 465.40234375 C-920.32367072 436.38086433 -900.55757141 408.32456074 -879.32666016 381.67382812 C-877.96165981 379.95162673 -876.61004984 378.21965176 -875.26171875 376.484375 C-869.47272573 369.04153027 -863.51245918 361.77909088 -857.37939453 354.61767578 C-855.98282977 352.97986373 -854.59729267 351.33333226 -853.21484375 349.68359375 C-848.01783391 343.48729921 -842.72054105 337.42260487 -837.25 331.46484375 C-835.38233297 329.41884046 -833.55630403 327.34982843 -831.75 325.25 C-820.22793407 312.05311322 -807.83460818 299.67605038 -795.43896484 287.30859375 C-793.07645357 284.95059186 -790.71732488 282.58931697 -788.36004066 280.22609711 C-786.0679898 277.92953761 -783.77210505 275.63681854 -781.4765625 273.34375 C-780.64307281 272.50823608 -779.80958313 271.67272217 -778.95083618 270.81188965 C-774.66957657 266.54760345 -770.32258376 262.42682265 -765.733078 258.4949646 C-762.97723187 256.11775341 -760.34137996 253.61461011 -757.6875 251.125 C-752.8189425 246.59098306 -747.80667836 242.31507219 -742.6171875 238.1484375 C-739.98158387 235.98488228 -737.45576625 233.7361044 -734.9375 231.4375 C-731.00482867 227.86234425 -726.96764535 224.49108734 -722.79296875 221.203125 C-720.76262665 219.60156843 -718.7459513 217.98882216 -716.73828125 216.359375 C-700.61822303 203.30217236 -683.8874856 191.04132292 -667 179 C-666.23284668 178.45021484 -665.46569336 177.90042969 -664.67529297 177.33398438 C-634.15917156 155.49987894 -601.91266077 135.99090843 -569 118 C-567.37771484 117.10764648 -567.37771484 117.10764648 -565.72265625 116.19726562 C-490.18566379 74.72683977 -408.82447351 43.93314143 -182.70916748 0.25714111 C-180.12709415 0.01206316 -177.54622838 -0.2433571 -174.96533203 -0.50048828 C-117.5841572 -6.09421034 -57.34759276 -5.78945739 0 0 Z " fill="#005293" transform="translate(1090,3)"/>
<path d="M0 0 C1.82730061 0.17881917 3.65461212 0.35752697 5.48193359 0.53613281 C91.01399065 9.0159276 175.5375828 27.64636766 336.6640625 91.41796875 C339.94872298 92.97568244 343.23953669 94.51975726 346.53125 96.0625 C359.38324507 102.11968407 371.91562765 108.60606299 384.32470703 115.52197266 C386.96350792 116.97983911 389.61658148 118.40688621 392.27734375 119.82421875 C407.54123437 127.97746224 422.27858117 136.91807122 437 146 C438.53241494 146.93902593 440.06494615 147.87786217 441.59765625 148.81640625 C470.61913567 166.67632928 498.67543926 186.44242859 525.32617188 207.67333984 C527.04837327 209.03834019 528.78034824 210.38995016 530.515625 211.73828125 C537.95846973 217.52727427 545.22090912 223.48754082 552.38232422 229.62060547 C554.02013627 231.01717023 555.66666774 232.40270733 557.31640625 233.78515625 C563.51270079 238.98216609 569.57739513 244.27945895 575.53515625 249.75 C577.58115954 251.61766703 579.65017157 253.44369597 581.75 255.25 C594.94688678 266.77206593 607.32394962 279.16539182 619.69140625 291.56103516 C622.04940814 293.92354643 624.41068303 296.28267512 626.77390289 298.63995934 C629.07046239 300.9320102 631.36318146 303.22789495 633.65625 305.5234375 C634.49176392 306.35692719 635.32727783 307.19041687 636.18811035 308.04916382 C640.45239655 312.33042343 644.57317735 316.67741624 648.5050354 321.266922 C650.88224659 324.02276813 653.38538989 326.65862004 655.875 329.3125 C660.40901694 334.1810575 664.68492781 339.19332164 668.8515625 344.3828125 C671.01511772 347.01841613 673.2638956 349.54423375 675.5625 352.0625 C679.13765575 355.99517133 682.50891266 360.03235465 685.796875 364.20703125 C687.39843157 366.23737335 689.01117784 368.2540487 690.640625 370.26171875 C703.69782764 386.38177697 715.95867708 403.1125144 728 420 C728.82467773 421.15072998 728.82467773 421.15072998 729.66601562 422.32470703 C781.07218055 494.17178932 822.20406704 574.36467136 906.74285889 904.29083252 C906.98793684 906.87290585 907.2433571 909.45377162 907.50048828 912.03466797 C913.09421034 969.4158428 912.78945739 1029.65240724 907 1087 C906.82118083 1088.82730061 906.64247303 1090.65461212 906.46386719 1092.48193359 C897.9840724 1178.01399065 879.35363234 1262.5375828 815.58203125 1423.6640625 C814.02431756 1426.94872298 812.48024274 1430.23953669 810.9375 1433.53125 C804.88031593 1446.38324507 798.39393701 1458.91562765 791.47802734 1471.32470703 C790.02016089 1473.96350792 788.59311379 1476.61658148 787.17578125 1479.27734375 C779.02253776 1494.54123437 770.08192878 1509.27858117 761 1524 C760.06097407 1525.53241494 759.12213783 1527.06494615 758.18359375 1528.59765625 C740.32367072 1557.61913567 720.55757141 1585.67543926 699.32666016 1612.32617188 C697.96165981 1614.04837327 696.61004984 1615.78034824 695.26171875 1617.515625 C689.47272573 1624.95846973 683.51245918 1632.22090912 677.37939453 1639.38232422 C675.98282977 1641.02013627 674.59729267 1642.66666774 673.21484375 1644.31640625 C668.01783391 1650.51270079 662.72054105 1656.57739513 657.25 1662.53515625 C655.38233297 1664.58115954 653.55630403 1666.65017157 651.75 1668.75 C640.22793407 1681.94688678 627.83460818 1694.32394962 615.43896484 1706.69140625 C613.07645357 1709.04940814 610.71732488 1711.41068303 608.36004066 1713.77390289 C606.0679898 1716.07046239 603.77210505 1718.36318146 601.4765625 1720.65625 C600.64307281 1721.49176392 599.80958313 1722.32727783 598.95083618 1723.18811035 C594.66957657 1727.45239655 590.32258376 1731.57317735 585.733078 1735.5050354 C582.97723187 1737.88224659 580.34137996 1740.38538989 577.6875 1742.875 C572.8189425 1747.40901694 567.80667836 1751.68492781 562.6171875 1755.8515625 C559.98158387 1758.01511772 557.45576625 1760.2638956 554.9375 1762.5625 C551.00482867 1766.13765575 546.96764535 1769.50891266 542.79296875 1772.796875 C540.76262665 1774.39843157 538.7459513 1776.01117784 536.73828125 1777.640625 C520.61822303 1790.69782764 503.8874856 1802.95867708 487 1815 C486.23284668 1815.54978516 485.46569336 1816.09957031 484.67529297 1816.66601562 C412.82821068 1868.07218055 332.63532864 1909.20406704 2.70916748 1993.74285889 C0.12709415 1993.98793684 -2.45377162 1994.2433571 -5.03466797 1994.50048828 C-62.4158428 2000.09421034 -122.65240724 1999.78945739 -180 1994 C-181.82730061 1993.82118083 -183.65461212 1993.64247303 -185.48193359 1993.46386719 C-271.01399065 1984.9840724 -355.5375828 1966.35363234 -516.6640625 1902.58203125 C-519.94872298 1901.02431756 -523.23953669 1899.48024274 -526.53125 1897.9375 C-539.38324507 1891.88031593 -551.91562765 1885.39393701 -564.32470703 1878.47802734 C-566.96350792 1877.02016089 -569.61658148 1875.59311379 -572.27734375 1874.17578125 C-587.54123437 1866.02253776 -602.27858117 1857.08192878 -617 1848 C-618.53241494 1847.06097407 -620.06494615 1846.12213783 -621.59765625 1845.18359375 C-650.61913567 1827.32367072 -678.67543926 1807.55757141 -705.32617188 1786.32666016 C-707.04837327 1784.96165981 -708.78034824 1783.61004984 -710.515625 1782.26171875 C-717.95846973 1776.47272573 -725.22090912 1770.51245918 -732.38232422 1764.37939453 C-734.02013627 1762.98282977 -735.66666774 1761.59729267 -737.31640625 1760.21484375 C-743.51270079 1755.01783391 -749.57739513 1749.72054105 -755.53515625 1744.25 C-757.58115954 1742.38233297 -759.65017157 1740.55630403 -761.75 1738.75 C-774.94688678 1727.22793407 -787.32394962 1714.83460818 -799.69140625 1702.43896484 C-802.04940814 1700.07645357 -804.41068303 1697.71732488 -806.77390289 1695.36004066 C-809.07046239 1693.0679898 -811.36318146 1690.77210505 -813.65625 1688.4765625 C-814.90952087 1687.22632797 -814.90952087 1687.22632797 -816.18811035 1685.95083618 C-820.45239655 1681.66957657 -824.57317735 1677.32258376 -828.5050354 1672.733078 C-830.88224659 1669.97723187 -833.38538989 1667.34137996 -835.875 1664.6875 C-840.40901694 1659.8189425 -844.68492781 1654.80667836 -848.8515625 1649.6171875 C-851.01511772 1646.98158387 -853.2638956 1644.45576625 -855.5625 1641.9375 C-859.13765575 1638.00482867 -862.50891266 1633.96764535 -865.796875 1629.79296875 C-867.39843157 1627.76262665 -869.01117784 1625.7459513 -870.640625 1623.73828125 C-883.69782764 1607.61822303 -895.95867708 1590.8874856 -908 1574 C-908.54978516 1573.23284668 -909.09957031 1572.46569336 -909.66601562 1571.67529297 C-961.07218055 1499.82821068 -1002.20406704 1419.63532864 -1086.74285889 1089.70916748 C-1086.98793684 1087.12709415 -1087.2433571 1084.54622838 -1087.50048828 1081.96533203 C-1093.09421034 1024.5841572 -1092.78945739 964.34759276 -1087 907 C-1086.82118083 905.17269939 -1086.64247303 903.34538788 -1086.46386719 901.51806641 C-1077.9840724 815.98600935 -1059.35363234 731.4624172 -995.58203125 570.3359375 C-994.02431756 567.05127702 -992.48024274 563.76046331 -990.9375 560.46875 C-984.88031593 547.61675493 -978.39393701 535.08437235 -971.47802734 522.67529297 C-970.02016089 520.03649208 -968.59311379 517.38341852 -967.17578125 514.72265625 C-959.02253776 499.45876563 -950.08192878 484.72141883 -941 470 C-940.06097407 468.46758506 -939.12213783 466.93505385 -938.18359375 465.40234375 C-920.32367072 436.38086433 -900.55757141 408.32456074 -879.32666016 381.67382812 C-877.96165981 379.95162673 -876.61004984 378.21965176 -875.26171875 376.484375 C-869.47272573 369.04153027 -863.51245918 361.77909088 -857.37939453 354.61767578 C-855.98282977 352.97986373 -854.59729267 351.33333226 -853.21484375 349.68359375 C-848.01783391 343.48729921 -842.72054105 337.42260487 -837.25 331.46484375 C-835.38233297 329.41884046 -833.55630403 327.34982843 -831.75 325.25 C-820.22793407 312.05311322 -807.83460818 299.67605038 -795.43896484 287.30859375 C-793.07645357 284.95059186 -790.71732488 282.58931697 -788.36004066 280.22609711 C-786.0679898 277.92953761 -783.77210505 275.63681854 -781.4765625 273.34375 C-780.64307281 272.50823608 -779.80958313 271.67272217 -778.95083618 270.81188965 C-774.66957657 266.54760345 -770.32258376 262.42682265 -765.733078 258.4949646 C-762.97723187 256.11775341 -760.34137996 253.61461011 -757.6875 251.125 C-752.8189425 246.59098306 -747.80667836 242.31507219 -742.6171875 238.1484375 C-739.98158387 235.98488228 -737.45576625 233.7361044 -734.9375 231.4375 C-731.00482867 227.86234425 -726.96764535 224.49108734 -722.79296875 221.203125 C-720.76262665 219.60156843 -718.7459513 217.98882216 -716.73828125 216.359375 C-700.61822303 203.30217236 -683.8874856 191.04132292 -667 179 C-666.23284668 178.45021484 -665.46569336 177.90042969 -664.67529297 177.33398438 C-634.15917156 155.49987894 -601.91266077 135.99090843 -569 118 C-567.37771484 117.10764648 -567.37771484 117.10764648 -565.72265625 116.19726562 C-490.18566379 74.72683977 -408.82447351 43.93314143 -182.70916748 0.25714111 C-180.12709415 0.01206316 -177.54622838 -0.2433571 -174.96533203 -0.50048828 C-117.5841572 -6.09421034 -57.34759276 -5.78945739 0 0 Z M-270.6875 94.25 C-271.68833618 94.45008667 -272.68917236 94.65017334 -273.72033691 94.85632324 C-293.18961278 98.75921686 -312.5473895 102.87453584 -331.5546875 108.671875 C-334.8587403 109.67383696 -338.17675859 110.60746613 -341.5078125 111.515625 C-389.42483923 124.58035858 -435.92984807 142.07139731 -480.74755859 163.45166016 C-483.90467455 164.95461988 -487.07021001 166.43826781 -490.23828125 167.91796875 C-512.07117405 178.17677702 -533.56315243 189.37689696 -554.18798828 201.90283203 C-556.01320466 203.00799539 -557.84685848 204.09769758 -559.68359375 205.18359375 C-592.2022891 224.4485094 -623.08733599 245.92644755 -653 269 C-653.68642578 269.52899902 -654.37285156 270.05799805 -655.08007812 270.60302734 C-662.5163848 276.34805094 -669.76706375 282.27373634 -676.91015625 288.37890625 C-679.77577694 290.82303334 -682.69405522 293.19695734 -685.625 295.5625 C-690.39238003 299.44163455 -694.94202987 303.51946207 -699.46484375 307.6796875 C-701.53325758 309.57281203 -703.62405876 311.42251704 -705.75 313.25 C-718.64427472 324.50393472 -730.75536018 336.59595763 -742.83691406 348.70654297 C-745.52033856 351.39537958 -748.20913792 354.07875956 -750.8984375 356.76171875 C-752.63052943 358.49447075 -754.36231154 360.22753253 -756.09375 361.9609375 C-757.28139954 363.14555069 -757.28139954 363.14555069 -758.49304199 364.35409546 C-762.65717422 368.53568514 -766.66735433 372.79410735 -770.51101685 377.27290344 C-772.73258494 379.84973757 -775.05605609 382.3229431 -777.375 384.8125 C-781.64519259 389.43433831 -785.68225373 394.19423948 -789.62890625 399.09765625 C-792.31831577 402.38963528 -795.09181954 405.59994494 -797.875 408.8125 C-803.28142628 415.07975697 -808.43114274 421.51459518 -813.49462891 428.06054688 C-815.1376503 430.17734252 -816.79268508 432.28438887 -818.44921875 434.390625 C-825.05858459 442.80989053 -831.51626513 451.29562253 -837.64697266 460.06982422 C-839.15507023 462.22121712 -840.67687939 464.36256906 -842.19921875 466.50390625 C-855.7568892 485.63678352 -868.40568218 505.30840782 -880.45556641 525.42236328 C-881.83304602 527.7213563 -883.21848101 530.01533253 -884.60546875 532.30859375 C-891.55386075 543.87710607 -897.91197801 555.76545189 -904.23730469 567.68310547 C-905.37149413 569.81732954 -906.50983592 571.94935483 -907.65332031 574.07861328 C-939.1998354 632.8227173 -963.04584043 696.57157867 -980 761 C-980.19184875 761.72828003 -980.38369751 762.45656006 -980.58135986 763.20690918 C-985.48335796 781.86839903 -990.03113511 800.53549392 -993.38769531 819.54541016 C-993.94774443 822.70517688 -994.52291875 825.86167617 -995.1031189 829.01777649 C-1000.26035027 857.105048 -1004.03992326 885.12635337 -1006.6875 913.5625 C-1006.79627472 914.7101181 -1006.90504944 915.85773621 -1007.01712036 917.04013062 C-1009.60791446 944.60687927 -1010.23621451 972.13471271 -1010.25 999.8125 C-1010.25073643 1000.49717976 -1010.25147285 1001.18185951 -1010.2522316 1001.88728714 C-1010.2813312 1035.34313693 -1009.05548845 1068.79682016 -1004.41357422 1101.96728516 C-1003.94325829 1105.41608356 -1003.51858376 1108.86904977 -1003.09765625 1112.32421875 C-997.53134448 1157.66208398 -989.22771848 1202.87421639 -976.01123047 1246.63818359 C-975.10990468 1249.63462398 -974.22108185 1252.63449818 -973.33694458 1255.63604736 C-958.34207815 1306.4875206 -939.36366335 1355.38282607 -916 1403 C-915.40567199 1404.21593922 -914.81143622 1405.43192353 -914.21728516 1406.64794922 C-906.01069359 1423.42168522 -897.40809728 1439.85999973 -888 1456 C-887.16484258 1457.45022035 -886.33017543 1458.90072319 -885.49609375 1460.3515625 C-865.39336143 1495.12920692 -842.60828057 1528.27155704 -818 1560 C-817.51789063 1560.62390625 -817.03578125 1561.2478125 -816.5390625 1561.890625 C-810.74126 1569.38612657 -804.77745726 1576.70662734 -798.62109375 1583.91015625 C-796.17696666 1586.77577694 -793.80304266 1589.69405522 -791.4375 1592.625 C-787.55836545 1597.39238003 -783.48053793 1601.94202987 -779.3203125 1606.46484375 C-777.42718797 1608.53325758 -775.57748296 1610.62405876 -773.75 1612.75 C-762.49606528 1625.64427472 -750.40404237 1637.75536018 -738.29345703 1649.83691406 C-735.60462042 1652.52033856 -732.92124044 1655.20913792 -730.23828125 1657.8984375 C-728.50552925 1659.63052943 -726.77246747 1661.36231154 -725.0390625 1663.09375 C-723.85444931 1664.28139954 -723.85444931 1664.28139954 -722.64590454 1665.49304199 C-718.46431486 1669.65717422 -714.20589265 1673.66735433 -709.72709656 1677.51101685 C-707.15026243 1679.73258494 -704.6770569 1682.05605609 -702.1875 1684.375 C-697.56566169 1688.64519259 -692.80576052 1692.68225373 -687.90234375 1696.62890625 C-684.61036472 1699.31831577 -681.40005506 1702.09181954 -678.1875 1704.875 C-671.92024303 1710.28142628 -665.48540482 1715.43114274 -658.93945312 1720.49462891 C-656.82265748 1722.1376503 -654.71561113 1723.79268508 -652.609375 1725.44921875 C-644.19010947 1732.05858459 -635.70437747 1738.51626513 -626.93017578 1744.64697266 C-624.77878288 1746.15507023 -622.63743094 1747.67687939 -620.49609375 1749.19921875 C-601.36321648 1762.7568892 -581.69159218 1775.40568218 -561.57763672 1787.45556641 C-559.2786437 1788.83304602 -556.98466747 1790.21848101 -554.69140625 1791.60546875 C-543.12289393 1798.55386075 -531.23454811 1804.91197801 -519.31689453 1811.23730469 C-517.18267046 1812.37149413 -515.05064517 1813.50983592 -512.92138672 1814.65332031 C-484.77398937 1829.76891889 -455.51938897 1842.3682846 -425.88372803 1854.2434082 C-424.12994827 1854.9478068 -422.37859332 1855.6582343 -420.62744141 1856.36914062 C-383.79403312 1871.28813194 -345.4323499 1882.18888989 -306.9375 1891.875 C-306.19359009 1892.06267944 -305.44968018 1892.25035889 -304.68322754 1892.44372559 C-295.53217569 1894.74358099 -286.3706499 1896.83017836 -277.09912109 1898.59796143 C-274.78209902 1899.04173394 -272.46726889 1899.49610352 -270.15234375 1899.95068359 C-257.61987293 1902.39510199 -245.05496245 1904.54403102 -232.4375 1906.5 C-230.99156464 1906.72494644 -230.99156464 1906.72494644 -229.51641846 1906.95443726 C-182.74859987 1914.1915943 -135.94459191 1917.19235468 -88.63549805 1917.18530273 C-85.74806504 1917.18522113 -82.86078955 1917.19224667 -79.97338867 1917.20581055 C-62.73472264 1917.28552268 -45.69339183 1916.85947226 -28.51622009 1915.21452332 C-24.74377771 1914.89289929 -20.97070087 1914.7504777 -17.1875 1914.625 C41.95806804 1911.92790203 103.08893574 1900.08880601 159.63818359 1883.01123047 C162.63462398 1882.10990468 165.63449818 1881.22108185 168.63604736 1880.33694458 C220.24550814 1865.118566 269.67152501 1845.69499368 318 1822 C319.13614746 1821.44554199 320.27229492 1820.89108398 321.44287109 1820.31982422 C337.61932039 1812.40910512 353.43638973 1804.05552226 369 1795 C370.45292549 1794.16371578 371.9060376 1793.32775567 373.359375 1792.4921875 C408.1329959 1772.38726793 441.27332763 1749.60690731 473 1725 C473.93585937 1724.27683594 473.93585937 1724.27683594 474.890625 1723.5390625 C482.38612657 1717.74126 489.70662734 1711.77745726 496.91015625 1705.62109375 C499.77577694 1703.17696666 502.69405522 1700.80304266 505.625 1698.4375 C510.39238003 1694.55836545 514.94202987 1690.48053793 519.46484375 1686.3203125 C521.53325758 1684.42718797 523.62405876 1682.57748296 525.75 1680.75 C538.64427472 1669.49606528 550.75536018 1657.40404237 562.83691406 1645.29345703 C565.52033856 1642.60462042 568.20913792 1639.92124044 570.8984375 1637.23828125 C572.63052943 1635.50552925 574.36231154 1633.77246747 576.09375 1632.0390625 C576.88551636 1631.24932037 577.67728271 1630.45957825 578.49304199 1629.64590454 C582.65717422 1625.46431486 586.66735433 1621.20589265 590.51101685 1616.72709656 C592.73258494 1614.15026243 595.05605609 1611.6770569 597.375 1609.1875 C601.64519259 1604.56566169 605.68225373 1599.80576052 609.62890625 1594.90234375 C612.31831577 1591.61036472 615.09181954 1588.40005506 617.875 1585.1875 C623.28142628 1578.92024303 628.43114274 1572.48540482 633.49462891 1565.93945312 C635.1376503 1563.82265748 636.79268508 1561.71561113 638.44921875 1559.609375 C645.05858459 1551.19010947 651.51626513 1542.70437747 657.64697266 1533.93017578 C659.15507023 1531.77878288 660.67687939 1529.63743094 662.19921875 1527.49609375 C687.54410624 1491.72884131 710.17708514 1454.0926321 730 1415 C730.3820459 1414.25105469 730.7640918 1413.50210937 731.15771484 1412.73046875 C739.9795137 1395.42601192 748.47167294 1377.90797276 756 1360 C756.43957031 1358.95569824 756.87914062 1357.91139648 757.33203125 1356.83544922 C771.66338509 1322.69449644 784.27649674 1288.13924513 794.29589844 1252.47070312 C794.94700023 1250.18597699 795.62498894 1247.91222504 796.3203125 1245.640625 C799.70142332 1234.57851241 802.43153398 1223.37994741 805.04101562 1212.11279297 C805.79890005 1208.84206106 806.58102117 1205.57750218 807.36523438 1202.31298828 C811.04148341 1186.87461422 814.04005376 1171.40555474 816.625 1155.75 C816.91448013 1154.01370834 816.91448013 1154.01370834 817.20980835 1152.24234009 C818.49982609 1144.49910658 819.76275345 1136.75183631 821 1129 C821.19139557 1127.80319611 821.19139557 1127.80319611 821.38665771 1126.58221436 C826.68582919 1093.22102593 829.65098561 1058.77747819 830 1025 C830.00988953 1024.15705383 830.01977905 1023.31410767 830.02996826 1022.44561768 C830.82214929 952.91928423 826.40498228 884.55942414 812.75 816.3125 C812.54991333 815.31166382 812.34982666 814.31082764 812.14367676 813.27966309 C808.24078314 793.81038722 804.12546416 774.4526105 798.328125 755.4453125 C797.32616304 752.1412597 796.39253387 748.82324141 795.484375 745.4921875 C782.41964142 697.57516077 764.92860269 651.07015193 743.54833984 606.25244141 C742.04538012 603.09532545 740.56173219 599.92978999 739.08203125 596.76171875 C728.82322298 574.92882595 717.62310304 553.43684757 705.09716797 532.81201172 C703.99200461 530.98679534 702.90230242 529.15314152 701.81640625 527.31640625 C682.5514906 494.7977109 661.07355245 463.91266401 638 434 C637.47100098 433.31357422 636.94200195 432.62714844 636.39697266 431.91992188 C630.65194906 424.4836152 624.72626366 417.23293625 618.62109375 410.08984375 C616.17696666 407.22422306 613.80304266 404.30594478 611.4375 401.375 C607.55836545 396.60761997 603.48053793 392.05797013 599.3203125 387.53515625 C597.42718797 385.46674242 595.57748296 383.37594124 593.75 381.25 C582.49606528 368.35572528 570.40404237 356.24463982 558.29345703 344.16308594 C555.60462042 341.47966144 552.92124044 338.79086208 550.23828125 336.1015625 C548.50552925 334.36947057 546.77246747 332.63768846 545.0390625 330.90625 C544.24932037 330.11448364 543.45957825 329.32271729 542.64590454 328.50695801 C538.46431486 324.34282578 534.20589265 320.33264567 529.72709656 316.48898315 C527.15026243 314.26741506 524.6770569 311.94394391 522.1875 309.625 C517.56566169 305.35480741 512.80576052 301.31774627 507.90234375 297.37109375 C504.61036472 294.68168423 501.40005506 291.90818046 498.1875 289.125 C491.92024303 283.71857372 485.48540482 278.56885726 478.93945312 273.50537109 C476.82265748 271.8623497 474.71561113 270.20731492 472.609375 268.55078125 C464.19010947 261.94141541 455.70437747 255.48373487 446.93017578 249.35302734 C444.77878288 247.84492977 442.63743094 246.32312061 440.49609375 244.80078125 C404.70398157 219.43632069 367.05980981 196.94607297 328 177 C327.27796387 176.63068359 326.55592773 176.26136719 325.81201172 175.88085938 C308.48162416 167.04460035 290.93526974 158.53980243 273 151 C271.95569824 150.56042969 270.91139648 150.12085938 269.83544922 149.66796875 C190.49913056 116.3649481 107.88046956 94.27315471 -36 78 C-37.11165527 77.92652344 -38.22331055 77.85304688 -39.36865234 77.77734375 C-116.56002103 73.03254162 -194.92745966 79.09177827 -270.6875 94.25 Z " fill="#FEFEFE" transform="translate(1090,3)"/>
<path d="M0 0 C0 90.09 0 180.18 0 273 C251.46 273 502.92 273 762 273 C762 346.92 762 420.84 762 497 C510.54 497 259.08 497 0 497 C0 583.46 0 669.92 0 759 C-13.48774081 752.2561296 -13.48774081 752.2561296 -18.1640625 749.44140625 C-19.20949219 748.81621094 -20.25492188 748.19101563 -21.33203125 747.546875 C-22.41871094 746.89203125 -23.50539063 746.2371875 -24.625 745.5625 C-27.01145751 744.13409476 -29.40009247 742.70935454 -31.7890625 741.28515625 C-32.3911554 740.92584015 -32.99324829 740.56652405 -33.61358643 740.19631958 C-39.70562254 736.56690174 -45.84919604 733.02875744 -52 729.5 C-60.87556213 724.40283007 -69.7038642 719.23302398 -78.5 714 C-88.31763708 708.16033238 -98.18201359 702.409822 -108.08544922 696.71704102 C-116.28924207 691.99748213 -124.46336373 687.22942127 -132.625 682.4375 C-133.23465607 682.07958374 -133.84431213 681.72166748 -134.47244263 681.35290527 C-136.90195688 679.92653308 -139.33146026 678.50014238 -141.76087952 677.0736084 C-147.6052941 673.64273495 -153.45779318 670.22577817 -159.3125 666.8125 C-160.28695068 666.2443457 -161.26140137 665.67619141 -162.26538086 665.09082031 C-165.17677007 663.39362183 -168.08834744 661.69674664 -171 660 C-184.46289523 652.15458515 -197.9167247 644.29405477 -211.35736084 636.4105835 C-223.55990577 629.25368097 -235.77741794 622.1226304 -248 615 C-261.46289523 607.15458515 -274.9167247 599.29405477 -288.35736084 591.4105835 C-300.55990577 584.25368097 -312.77741794 577.1226304 -325 570 C-338.46458548 562.15360017 -351.92028551 554.29238763 -365.36239624 546.40756226 C-373.56862537 541.59418056 -381.78023777 536.79025174 -390 532 C-398.84159637 526.84736039 -407.67305508 521.67767787 -416.5 516.5 C-429.32145228 508.97957735 -442.15726175 501.48402239 -455 494 C-468.46289523 486.15458515 -481.9167247 478.29405477 -495.35736084 470.4105835 C-507.55990577 463.25368097 -519.77741794 456.1226304 -532 449 C-545.46289523 441.15458515 -558.9167247 433.29405477 -572.35736084 425.4105835 C-580.67019963 420.53502866 -588.98754438 415.66735035 -597.3125 410.8125 C-598.27736328 410.24950195 -599.24222656 409.68650391 -600.23632812 409.10644531 C-605.24067984 406.18752022 -610.24875881 403.27521216 -615.26171875 400.37109375 C-626.63553377 393.77359113 -637.91564186 387.07442858 -649 380 C-646.60875126 377.35416403 -644.06354927 375.74168745 -640.96875 373.98828125 C-639.43250977 373.11139648 -639.43250977 373.11139648 -637.86523438 372.21679688 C-636.75470703 371.58837891 -635.64417969 370.95996094 -634.5 370.3125 C-632.12334166 368.95732039 -629.7490311 367.59805699 -627.375 366.23828125 C-626.76434692 365.88895538 -626.15369385 365.53962952 -625.52453613 365.17971802 C-619.14196197 361.52187647 -612.81981923 357.76520499 -606.5 354 C-596.63679069 348.13110622 -586.72184403 342.36079312 -576.76953125 336.64453125 C-568.97484952 332.15953344 -561.22855323 327.5978945 -553.5 323 C-543.68236292 317.16033238 -533.81798641 311.409822 -523.91455078 305.71704102 C-515.71075878 300.99748262 -507.53660177 296.22947892 -499.375 291.4375 C-498.76368225 291.07858673 -498.1523645 290.71967346 -497.52252197 290.34988403 C-496.29596659 289.62972017 -495.06941424 288.90955113 -493.84286499 288.18937683 C-493.24245392 287.83684341 -492.64204285 287.48431 -492.0234375 287.12109375 C-491.42713531 286.77093704 -490.83083313 286.42078033 -490.21646118 286.06001282 C-484.48437306 282.69510756 -478.74303985 279.34616726 -473 276 C-464.15835024 270.84745238 -455.32694464 265.67767771 -446.5 260.5 C-432.7143245 252.41401223 -418.91109809 244.35837162 -405.10253906 236.31152344 C-393.22592181 229.38981335 -381.35728042 222.45476975 -369.5 215.5 C-355.71426453 207.41411415 -341.91109844 199.35837182 -328.10253906 191.31152344 C-316.22592181 184.38981335 -304.35728042 177.45476975 -292.5 170.5 C-278.71426453 162.41411415 -264.91109844 154.35837182 -251.10253906 146.31152344 C-239.22592181 139.38981335 -227.35728042 132.45476975 -215.5 125.5 C-201.71426453 117.41411415 -187.91109844 109.35837182 -174.10253906 101.31152344 C-162.22592181 94.38981335 -150.35728042 87.45476975 -138.5 80.5 C-124.71426453 72.41411415 -110.91109844 64.35837182 -97.10253906 56.31152344 C-84.60643157 49.02877352 -72.11990245 41.72999574 -59.64465332 34.41159058 C-50.32451616 28.94420915 -40.99448853 23.49411428 -31.65600586 18.05810547 C-26.64500663 15.13789514 -21.64417224 12.20166768 -16.65625 9.2421875 C-15.63329834 8.63536133 -14.61034668 8.02853516 -13.55639648 7.40332031 C-11.59896799 6.24064322 -9.64269969 5.07601006 -7.68774414 3.90917969 C-6.82270264 3.39516602 -5.95766113 2.88115234 -5.06640625 2.3515625 C-4.30271729 1.89604004 -3.53902832 1.44051758 -2.75219727 0.97119141 C-1 0 -1 0 0 0 Z " fill="#FEFEFE" transform="translate(949,615)"/>
</svg>
